<mxGraphModel dx="1422" dy="767" grid="1" gridSize="10" guides="1" tooltips="1" connect="1" arrows="1" fold="1" page="0" pageScale="1" pageWidth="827" pageHeight="1169" background="none" math="0" shadow="1">
  <root>
    <mxCell id="0" />
    <mxCell id="1" parent="0" />
    <UserObject label="" link="https://github.com/liskin/dotfiles/blob/15c2cd83ce7297c38830053a9fd2be2f3678f4b0/bin/liskin-xsecurelock#L11-L20" id="5sxOvh6XKOCeENeX7emo-6">
      <mxCell style="rounded=0;orthogonalLoop=1;jettySize=auto;html=1;entryX=0;entryY=0.75;entryDx=0;entryDy=0;strokeWidth=2;" parent="1" source="5sxOvh6XKOCeENeX7emo-4" target="5sxOvh6XKOCeENeX7emo-16" edge="1">
        <mxGeometry relative="1" as="geometry">
          <mxPoint x="123.38000000000011" y="368" as="targetPoint" />
        </mxGeometry>
      </mxCell>
    </UserObject>
    <UserObject label="" link="https://github.com/liskin/dotfiles/blob/15c2cd83ce7297c38830053a9fd2be2f3678f4b0/.xmonad/xmonad.hs#L73-L81" id="5sxOvh6XKOCeENeX7emo-13">
      <mxCell style="rounded=0;orthogonalLoop=1;jettySize=auto;html=1;entryX=0;entryY=0.25;entryDx=0;entryDy=0;fontFamily=sans;strokeWidth=2;" parent="1" source="5sxOvh6XKOCeENeX7emo-5" target="5sxOvh6XKOCeENeX7emo-16" edge="1">
        <mxGeometry relative="1" as="geometry">
          <mxPoint x="123.38000000000011" y="322" as="targetPoint" />
        </mxGeometry>
      </mxCell>
    </UserObject>
    <UserObject label="" link="https://github.com/liskin/dotfiles/blob/15c2cd83ce7297c38830053a9fd2be2f3678f4b0/bin/liskin-media#L93-L100" id="5sxOvh6XKOCeENeX7emo-22">
      <mxCell style="edgeStyle=none;rounded=0;orthogonalLoop=1;jettySize=auto;html=1;fontFamily=sans;exitX=1;exitY=0.5;exitDx=0;exitDy=0;entryX=0;entryY=0.5;entryDx=0;entryDy=0;strokeWidth=2;" parent="1" source="5sxOvh6XKOCeENeX7emo-16" target="5sxOvh6XKOCeENeX7emo-17" edge="1">
        <mxGeometry relative="1" as="geometry">
          <mxPoint x="240" y="364" as="targetPoint" />
        </mxGeometry>
      </mxCell>
    </UserObject>
    <mxCell id="5sxOvh6XKOCeENeX7emo-44" style="edgeStyle=orthogonalEdgeStyle;rounded=1;comic=0;orthogonalLoop=1;jettySize=auto;html=1;exitX=1;exitY=0.5;exitDx=0;exitDy=0;fontFamily=sans;startArrow=classic;startFill=1;strokeWidth=2;" parent="1" source="5sxOvh6XKOCeENeX7emo-17" edge="1">
      <mxGeometry relative="1" as="geometry">
        <mxPoint x="320" y="349" as="targetPoint" />
      </mxGeometry>
    </mxCell>
    <mxCell id="5sxOvh6XKOCeENeX7emo-66" style="edgeStyle=none;rounded=1;comic=0;orthogonalLoop=1;jettySize=auto;html=1;exitX=0;exitY=1;exitDx=0;exitDy=0;fontFamily=sans;startArrow=classic;startFill=1;strokeWidth=2;" parent="1" source="5sxOvh6XKOCeENeX7emo-52" edge="1">
      <mxGeometry relative="1" as="geometry">
        <mxPoint x="420" y="314" as="targetPoint" />
      </mxGeometry>
    </mxCell>
    <mxCell id="5sxOvh6XKOCeENeX7emo-67" style="edgeStyle=none;rounded=1;comic=0;orthogonalLoop=1;jettySize=auto;html=1;exitX=0;exitY=0.25;exitDx=0;exitDy=0;fontFamily=sans;startArrow=classic;startFill=1;strokeWidth=2;" parent="1" source="5sxOvh6XKOCeENeX7emo-58" edge="1">
      <mxGeometry relative="1" as="geometry">
        <mxPoint x="420" y="384" as="targetPoint" />
      </mxGeometry>
    </mxCell>
    <UserObject label="" link="https://github.com/chromium/chromium/tree/0944c7716afc8b3d8fe2236db79866d4c8a57b6f/components/system_media_controls/linux" id="5sxOvh6XKOCeENeX7emo-69">
      <mxCell style="edgeStyle=none;rounded=1;comic=0;orthogonalLoop=1;jettySize=auto;html=1;fontFamily=sans;startArrow=classic;startFill=1;strokeWidth=2;" parent="1" source="5sxOvh6XKOCeENeX7emo-46" edge="1">
        <mxGeometry relative="1" as="geometry">
          <mxPoint x="450" y="343.5" as="targetPoint" />
        </mxGeometry>
      </mxCell>
    </UserObject>
    <UserObject label="" link="https://github.com/liskin/dotfiles/blob/15c2cd83ce7297c38830053a9fd2be2f3678f4b0/bin/liskin-media#L46-L54" id="5sxOvh6XKOCeENeX7emo-24">
      <mxCell style="edgeStyle=orthogonalEdgeStyle;rounded=1;orthogonalLoop=1;jettySize=auto;html=1;exitX=0.5;exitY=0;exitDx=0;exitDy=0;entryX=0.75;entryY=0;entryDx=0;entryDy=0;fontFamily=sans;comic=0;strokeWidth=2;" parent="1" source="5sxOvh6XKOCeENeX7emo-17" target="5sxOvh6XKOCeENeX7emo-16" edge="1">
        <mxGeometry relative="1" as="geometry" />
      </mxCell>
    </UserObject>
    <UserObject label="daemon" link="https://github.com/liskin/dotfiles/blob/15c2cd83ce7297c38830053a9fd2be2f3678f4b0/bin/liskin-media#L46-L54" id="5sxOvh6XKOCeENeX7emo-25">
      <mxCell style="text;html=1;resizable=0;autosize=1;align=center;verticalAlign=middle;points=[];fillColor=none;strokeColor=none;rounded=0;fontFamily=sans-serif;fontStyle=2" parent="1" vertex="1">
        <mxGeometry x="170" y="279" width="70" height="20" as="geometry" />
      </mxCell>
    </UserObject>
    <mxCell id="5sxOvh6XKOCeENeX7emo-78" value="" style="group" parent="1" vertex="1" connectable="0">
      <mxGeometry x="319" y="303" width="122" height="121" as="geometry" />
    </mxCell>
    <UserObject label="dbus (MPRIS)" link="https://www.freedesktop.org/wiki/Specifications/mpris-spec/" id="5sxOvh6XKOCeENeX7emo-41">
      <mxCell style="text;html=1;resizable=0;autosize=1;align=center;verticalAlign=middle;points=[];fillColor=none;strokeColor=none;rounded=0;fontFamily=sans-serif;" parent="5sxOvh6XKOCeENeX7emo-78" vertex="1">
        <mxGeometry x="11" y="101" width="100" height="20" as="geometry" />
      </mxCell>
    </UserObject>
    <UserObject label="" link="https://www.freedesktop.org/wiki/Specifications/mpris-spec/" id="5sxOvh6XKOCeENeX7emo-77">
      <mxCell style="shape=image;imageAspect=0;aspect=fixed;verticalLabelPosition=bottom;verticalAlign=top;fontFamily=sans;image=data:image/svg+xml,PHN2ZyB4bWxucz0iaHR0cDovL3d3dy53My5vcmcvMjAwMC9zdmciIHhtbG5zOnhsaW5rPSJodHRwOi8vd3d3LnczLm9yZy8xOTk5L3hsaW5rIiB2ZXJzaW9uPSIxLjEiIHdpZHRoPSIxMjJweCIgaGVpZ2h0PSI5MnB4IiB2aWV3Qm94PSItMC41IC0wLjUgMTIyIDkyIj48ZGVmcy8+PGc+PHJlY3QgeD0iNDgiIHk9IjEiIHdpZHRoPSIyNiIgaGVpZ2h0PSIxOCIgZmlsbD0iI2ZmZmJjMCIgc3Ryb2tlPSIjMDAwMDAwIiBzdHJva2Utd2lkdGg9IjIiIHBvaW50ZXItZXZlbnRzPSJhbGwiLz48cmVjdCB4PSIxIiB5PSIxOSIgd2lkdGg9IjI2IiBoZWlnaHQ9IjE4IiBmaWxsPSIjZmZmYmMwIiBzdHJva2U9IiMwMDAwMDAiIHN0cm9rZS13aWR0aD0iMiIgcG9pbnRlci1ldmVudHM9ImFsbCIvPjxyZWN0IHg9Ijk1IiB5PSIxOSIgd2lkdGg9IjI2IiBoZWlnaHQ9IjE4IiBmaWxsPSIjZmZmYmMwIiBzdHJva2U9IiMwMDAwMDAiIHN0cm9rZS13aWR0aD0iMiIgcG9pbnRlci1ldmVudHM9ImFsbCIvPjxyZWN0IHg9IjEiIHk9IjU1IiB3aWR0aD0iMjYiIGhlaWdodD0iMTgiIGZpbGw9IiNmZmZiYzAiIHN0cm9rZT0iIzAwMDAwMCIgc3Ryb2tlLXdpZHRoPSIyIiBwb2ludGVyLWV2ZW50cz0iYWxsIi8+PHJlY3QgeD0iOTUiIHk9IjU1IiB3aWR0aD0iMjYiIGhlaWdodD0iMTgiIGZpbGw9IiNmZmZiYzAiIHN0cm9rZT0iIzAwMDAwMCIgc3Ryb2tlLXdpZHRoPSIyIiBwb2ludGVyLWV2ZW50cz0iYWxsIi8+PHJlY3QgeD0iNDgiIHk9IjczIiB3aWR0aD0iMjYiIGhlaWdodD0iMTgiIGZpbGw9IiNmZmZiYzAiIHN0cm9rZT0iIzAwMDAwMCIgc3Ryb2tlLXdpZHRoPSIyIiBwb2ludGVyLWV2ZW50cz0iYWxsIi8+PHJlY3QgeD0iNDgiIHk9IjM3IiB3aWR0aD0iMjYiIGhlaWdodD0iMTgiIGZpbGw9IiNjMGY1YTkiIHN0cm9rZT0iIzAwMDAwMCIgc3Ryb2tlLXdpZHRoPSIyIiBwb2ludGVyLWV2ZW50cz0iYWxsIi8+PHBhdGggZD0iTSA2MSAzNyBMIDYxIDE5IiBmaWxsPSJub25lIiBzdHJva2U9IiMwMDAwMDAiIHN0cm9rZS13aWR0aD0iMiIgc3Ryb2tlLW1pdGVybGltaXQ9IjEwIiBwb2ludGVyLWV2ZW50cz0ic3Ryb2tlIi8+PHBhdGggZD0iTSA0OCA0MS4wMiBMIDI3IDMyLjk4IiBmaWxsPSJub25lIiBzdHJva2U9IiMwMDAwMDAiIHN0cm9rZS13aWR0aD0iMiIgc3Ryb2tlLW1pdGVybGltaXQ9IjEwIiBwb2ludGVyLWV2ZW50cz0ic3Ryb2tlIi8+PHBhdGggZD0iTSA3NCA0MS4wMiBMIDk1IDMyLjk4IiBmaWxsPSJub25lIiBzdHJva2U9IiMwMDAwMDAiIHN0cm9rZS13aWR0aD0iMiIgc3Ryb2tlLW1pdGVybGltaXQ9IjEwIiBwb2ludGVyLWV2ZW50cz0ic3Ryb2tlIi8+PHBhdGggZD0iTSA0OCA1MC45OCBMIDI3IDU5LjAyIiBmaWxsPSJub25lIiBzdHJva2U9IiMwMDAwMDAiIHN0cm9rZS13aWR0aD0iMiIgc3Ryb2tlLW1pdGVybGltaXQ9IjEwIiBwb2ludGVyLWV2ZW50cz0ic3Ryb2tlIi8+PHBhdGggZD0iTSA3NCA1MC45OCBMIDk1IDU5LjAyIiBmaWxsPSJub25lIiBzdHJva2U9IiMwMDAwMDAiIHN0cm9rZS13aWR0aD0iMiIgc3Ryb2tlLW1pdGVybGltaXQ9IjEwIiBwb2ludGVyLWV2ZW50cz0ic3Ryb2tlIi8+PHBhdGggZD0iTSA2MSA1NSBMIDYxIDczIiBmaWxsPSJub25lIiBzdHJva2U9IiMwMDAwMDAiIHN0cm9rZS13aWR0aD0iMiIgc3Ryb2tlLW1pdGVybGltaXQ9IjEwIiBwb2ludGVyLWV2ZW50cz0ic3Ryb2tlIi8+PC9nPjwvc3ZnPg==;" parent="5sxOvh6XKOCeENeX7emo-78" vertex="1">
        <mxGeometry width="122" height="92" as="geometry" />
      </mxCell>
    </UserObject>
    <mxCell id="5sxOvh6XKOCeENeX7emo-79" value="" style="group" parent="1" vertex="1" connectable="0">
      <mxGeometry x="220" y="320" width="70" height="80" as="geometry" />
    </mxCell>
    <UserObject label="" link="https://github.com/altdesktop/playerctl" id="5sxOvh6XKOCeENeX7emo-17">
      <mxCell style="shape=image;html=1;verticalAlign=top;verticalLabelPosition=bottom;labelBackgroundColor=#ffffff;imageAspect=0;aspect=fixed;image=data:image/png,iVBORw0KGgoAAAANSUhEUgAAAIAAAACACAMAAAD04JH5AAACWFBMVEUAAAAA/wAA/wAAAAAAqgAAvwBAQEAAzAAzMzMA1QArKysgvyAgIEAkJDcOxg4rKysoKDYMxQwjIy4WvBYhLCwVvxUUwhQnJzEiKzMTvxMkJDEjKS4iKC0RwhEhJzIQwxAmJjEQvxAlJTAQwRAkJC8TwBMiJjASvxIkKDEiJi8RwBEQwhAjJy8PwQ8Pwg8TvxMSwBIlKTASwRIkKC8iJjAlKC8RwBEkJzEQwhAQwBASwhIlKDESwhIkJzESwRISwRIjJjERwBERwREQwRAQwRAjKDAQwhAQwBAlJy8kJy8SwhIRwRElKC8RwhEQwBAjKDElJzASwBIRwBElJzAkJy8kJjERwBEQwhAQwBASwRIkKDASwRIjJzERwRERwhERwBERwRERwhEQwhASwRIjJzASwRIjJy8RwRERwREkJzAQwRAkJy8QwRAkJzEkJzAjJjAlJjARwREkKDAkJy8kJzAkJzAkJzARwhEjJjARwBElKC8RwRERwRERwhEkJzAkJzAQwRAkJy8RwREkJzERwBERwRERwRElJzARwREkJzARwREQwRAlJy8kJzARwREjJzERwhElJzARwREQwRAkJzASwRIRwRERwREkJzARwREkJzARwREkJy8RwBEkJzARwRERwhEkJzAkJzARwhEkJzERwREkJzAkJzARwREkJy8kJjARwREkJzAkJzARwREkJzARwRERwREkJzAkJzARwREkJzAkJzARwREkJy8RwREkJzARwREkJzARwREkJzARwREkJzARwREkJzARwREkJzAkJzARwREkJzAjKNqbAAAAxnRSTlMAAQICAwQEBQUGBggIDhISExYWFxcYGRoeKCosLS4uLy8wMDExNTU4OTw9P0FCQ0RFRUZGSkxNTlBRU1NUVFZXWFlbXl9fYGFhYmRnZ2htbW9ydnZ3eHp9foCAg4OEhYaIiY2PkJGRlZebnJydnZ6foKGhoqOkpaamp6eoqaqqq6yssbKztLW1tra5urzAwcLDw8jJyczN0tPW1tfX2Nrb3N3e4OLk5OXn5+jq7O3v7/Dx8fLz9fb39/j4+fn6+vv7/Pz9/f7G6ZcoAAADVElEQVR42u3a91vTQBgH8BdUilYRpW5rEffCjVqoWxy4t1agLhwoosgQEIqDWgfuiQq4B9aJOFBaxeTf8kmTyKOFyl1ectbnvj/0yZP08n6eZt2lB8DDE2qJWbjziNOfo/YoeVX3LSVlwVOwLhqp/LiK70JzrhukdZE3xL/n2VCM8lEnhN8zXlo7UWxLXiAI+lX/UV9IklbbRJ0EvR8KWgCaBZ0uB9QXrNKGRFEfQUpgfcEsbYgVdREYnwTW3y5vymi7II4ekKBW/bJvfpI/VrO6LTbR1mqasAR7lfqvh5G1+4b1G1QpgOWE7bxYR+GjAojRCKAWqKcAabuvAWdibRxjAKWAFtAgIgkwAVQCWsCnFu9ItbGMARQCZAC54JVc30MK+CAiCewywI4GIBWEJec7nfnJYaSA960/G2sH6tGLDgIQb3fQAVAXrH8wkjUgUQfA22AAmw6AW1gAk9sril6XiRSwFgvglpu4SAERpUgApWfjJT8IU3ZkZu7PyjqQnX0oJ+dwbm5eQeEDCoCKRjkxyjiAAziAAziAAziAAziAAziAA0IRQD80QwIog1M3M4A8PHebmAFQwwEc0BLA4ihyak6Rw0wJMKT7BJQ0phqoAGkCWlJpAGYfHqDRTAFwCIhxUACKMQFFFAAnJsDZToDKjQmjp6ff2TTDwwRQn/Lrz5ozLACf46WvdfYjTrEArAeA5Gqh/qAR4CQDwHMjwBz/0gaAYwwAuwCg0r9UFQ4VDABzAXooi5dOs7gMxwAMYXofYA6Y2XwI2AC2AcBNloD7HQFmyYvXll1gcSNaAgDzqoX68niACSwA7wb7b8Xh0udWJg8jj1X5aq/drB7HV1dPGmFdVe5j1h9o18uQeZeMeafUgtgt91lCcWAChjSsoZmdbmgmDU6LtQ9Oi6kHp/z9AAeEAMDkoptHhAZwUc4j+n9eVvP/CzhAnR2Lch2eV3Y2laDNXaXNCoT6fdUp9yQTe7OUNm+Ga67f7aKyr5eRBK2mqSdBQ+YCm5bM3vxI3VUeCbvrUxE9k4l+uKXo9c+SHbmIK8j16wYQnjt9HqPW/0E+q7l/DWL9hkUU10/0cbT6NaPoLuGx55owyt9b2YX6LtJzcUZhmZaU7FkzCHh4/qH8BGUXh1vWfcAIAAAAAElFTkSuQmCC;fontFamily=sans;" parent="5sxOvh6XKOCeENeX7emo-79" vertex="1">
        <mxGeometry width="58" height="58" as="geometry" />
      </mxCell>
    </UserObject>
    <UserObject label="playerctl" link="https://github.com/altdesktop/playerctl" id="5sxOvh6XKOCeENeX7emo-20">
      <mxCell style="text;html=1;resizable=0;autosize=1;align=center;verticalAlign=middle;points=[];fillColor=none;strokeColor=none;rounded=0;fontFamily=sans-serif;" parent="5sxOvh6XKOCeENeX7emo-79" vertex="1">
        <mxGeometry y="60" width="70" height="20" as="geometry" />
      </mxCell>
    </UserObject>
    <mxCell id="5sxOvh6XKOCeENeX7emo-80" value="" style="group" parent="1" vertex="1" connectable="0">
      <mxGeometry x="110" y="320" width="90" height="80" as="geometry" />
    </mxCell>
    <UserObject label="" link="https://github.com/liskin/dotfiles/blob/15c2cd83ce7297c38830053a9fd2be2f3678f4b0/bin/liskin-media" id="5sxOvh6XKOCeENeX7emo-16">
      <mxCell style="shape=image;html=1;verticalAlign=top;verticalLabelPosition=bottom;labelBackgroundColor=#ffffff;imageAspect=0;aspect=fixed;image=data:image/png,iVBORw0KGgoAAAANSUhEUgAAAIAAAACACAMAAAD04JH5AAACu1BMVEUAAAAA/wAA/wAAAAAAqgAAvwBAQEAAzAAzMzMA1QArKysgvyAgIEAcxhwazBoUxBQSyBIkJDcOxg4rKysNvA0oKDYMwgwjIy4WvBYhLCwUwhQUxBQnJzERxBEiKzMOvw4UwxQUxBQTvxMTwRMkJDESxBIjKS4iKC0RwhEhJzIQwxAmJjEQvxAlJTAQwRAkJC8Pww8Pvw8TwBMiJjASvxIkKDERvxEiJi8RwBEQwhAQwBAjJy8PwQ8TvxMSwBIlKTASwRIkKC8RwREiJjARwxElKC8RwBEkJzESwhIlKDESwhIkJzERwhEjJjERwhEQwRAjKDAQwhAQwBAlJy8SwRIkJy8SwRISwhISwBISwRIRwRElKC8RwBERwBERwhEQwBAjKDEQwBAlJzAQwhAlJzAkJy8RwREkJjERwhEQwBAkKDASwRIjJzERwRERwhERwBERwRERwhERwBESwRIjJzASwRIjJy8kJzAQwRAkJy8QwRAkJzEkJzAjJjASwRIlJjAkKDARwhEkJy8kJzARwREkJzAkJzARwhEjJjARwBElKC8RwRERwRERwhEkJzAQwBAkJzAQwRAkJy8SwRIRwBEkJzERwBERwRElJzAkJzARwREQwRAQwhASwRIlJy8kJzARwREjJzElJzARwRERwREQwRAkJzAQwRASwRISwRIRwRERwRERwRERwBERwRERwREkJzARwREkJzAkJy8SwRIkJzARwRERwhEkJzARwREkJzARwhERwREkJzERwREkJzARwREkJzARwREkJy8QwRAkJjASwRIRwRERwREkJzAkJzARwRERwREkJzARwRERwREkJzARwREkJzARwREkJzARwREkJzARwREkJy8RwREkJzARwREkJzARwREkJzARwREkJzARwREkJzARwREkJzARwREkJzARwREkJzCdzWJdAAAA53RSTlMAAQICAwQEBQUGBggICQoNDg4SEhMTFRYXFxkaGh4eJCYnKCkqKywtLi4vLzAwMTEzNDU1ODk8PD0/QUFCREVFRkZKSkxMTU5TU1RUWFhcX19gYWFiYmNkZWZnZ2lqbG1tbm9wdnd4eHl+gIODhIWGiImKj5CRkZucnJ2dnp+goKGioqOkpKWmpqenqKmqqqurrKytr7KztbW2uLq7vLzAwcLDxMXJycrLzM3Oz9DS09PV1tfa2tvc3d7e4OHi5OTl5efn6Ojp6+zs7e7v7/Dx8fLy9fX29vf3+Pj5+fr6+/v8/P39/v5b5VZ2AAAEA0lEQVR42u3a+1sUVRgH8BdkxEtaohiQaZLpCqlZibbdLLHAtRI0SS2we7ZxMROjaA1d7kgtmUI3TcFr3vKSFt6IuHSxKC1NCBDxnT/DZ3Zm8DF085x9nzPSc76/DMzsmffz7JzZOWf3AMjI9LSEJS4t9Hizyhmi7xr8RmmZ7xS8GkpU/oH1HXgpO4O1fX12q/+dHyZQlA9Zg5fnQW3vw+q15EcCQeQ3/6qPM7TdDlWQIOII+gPwW6BUdauPcdqBeFWMYH73+mjTDkSrQgT9a7rXX6Ifyrx2wTh+wGNm1ZZ3nprhTZzNPBYd77hqzlMJ3jbq/3o3W7tzVO/BAQOQwtiujeoqnDEAYX4CuAVmF2Bt90+3ntg4zmIAp4AX0KwSCSgBXAJewN9X/ERqjLYYwCEgBrALTuj1f2YFnFaJBE4d4CQDsAoCEvI9nvyEAFbAn1d/NjaOETGK9gFQ9/YSADjpa3wwyWpAvADA774ADgGAr6kA4RVtqtpWHs4KeJkKUKE3KWcF9P6QCGCMbNrYL8K0t7Ky3s3Ofm/58vdXrFiZm5tXUHSYA2CiSTpGmQRIgARIgARIgARIgARIgARIQE8E8E/NiADG5LTCMoA+Pa8ItwxAGgmQgCsBojKKPX6nOMPGCQhOb0eStKYGcwHSkCypPABbOx2g1cYByEDCZHAASigBxRwADyXAQwvoKHzxUfu8D5z3bUHET91ud+ER3Ol2u93bxQB2dHWpxYgfef+4vV7RNkG1IgD1twIoU2KH6r9a6YBIkYAUgAFfIf4RC7AIsXP1UIBnDuFmO8C9lUIuwUSAKdq2dqB+q44AcCNiMsCTYjrheID+OdpvlltdTZYAkrSjgbZni5v0/0cA3BYTExMhDFAdYbzixvROA2BEEABrn7vJeM1rBiBQUZQAYYC/GvDs569MDASAvics6ANNQ4I+0bZ1dgCotACwB+Au77XPB4CNFgD2AcDzLYiYCKD8hPhZGEDyMdw1FSBGyLOgWjt4y8yEOwEgCXG198V3NPTVNkqdAEB9VxNlzinz1CP1Z0FgjYi7INme/+ZM+0Nznd7VnJ1rXS5Xzne4zeVyuaoEjQfEDEgsH5JZPiiNIhyWt0f1xIkJBKdRTc2cfFMzbXJa4v/ktIR7ciq/H5CAHgAIL+dbR0QGKOdcR/T/+bJa/l4gAebqWJL78EvjZNMZ2uw32iwkqD/cXHLPsrA322jz2z1+1x+0wTjXL30YWj1udoLmrFkOf/LE60fNU+WxsG/4XiXPI0xv3ALy+l+wXbnem4jrnxzN2HeGHSetf4F9VfOog4T1m2dz3D+hH5PVPziZ7xa+f915ivLfvtCP+1Pk5qczi8r8Semyl8aCjMx1lIuMc19H3jWO1wAAAABJRU5ErkJggg==;fontFamily=sans;" parent="5sxOvh6XKOCeENeX7emo-80" vertex="1">
        <mxGeometry x="10" width="58" height="58" as="geometry" />
      </mxCell>
    </UserObject>
    <UserObject label="liskin-media" link="https://github.com/liskin/dotfiles/blob/15c2cd83ce7297c38830053a9fd2be2f3678f4b0/bin/liskin-media" id="5sxOvh6XKOCeENeX7emo-14">
      <mxCell style="text;html=1;resizable=0;autosize=1;align=center;verticalAlign=middle;points=[];fillColor=none;strokeColor=none;rounded=0;fontFamily=sans-serif;" parent="5sxOvh6XKOCeENeX7emo-80" vertex="1">
        <mxGeometry y="60" width="90" height="20" as="geometry" />
      </mxCell>
    </UserObject>
    <mxCell id="5sxOvh6XKOCeENeX7emo-81" value="" style="group" parent="1" vertex="1" connectable="0">
      <mxGeometry x="30" y="385" width="90" height="80" as="geometry" />
    </mxCell>
    <UserObject label="" link="https://github.com/google/xsecurelock" id="5sxOvh6XKOCeENeX7emo-4">
      <mxCell style="aspect=fixed;pointerEvents=1;shadow=0;dashed=0;html=1;strokeColor=none;labelPosition=center;verticalLabelPosition=bottom;verticalAlign=top;align=center;fillColor=#00188D;shape=mxgraph.mscae.enterprise.lock" parent="5sxOvh6XKOCeENeX7emo-81" vertex="1">
        <mxGeometry x="25.5" width="39" height="50" as="geometry" />
      </mxCell>
    </UserObject>
    <UserObject label="xsecurelock" link="https://github.com/google/xsecurelock" id="5sxOvh6XKOCeENeX7emo-9">
      <mxCell style="text;html=1;resizable=0;autosize=1;align=center;verticalAlign=middle;points=[];fillColor=none;strokeColor=none;rounded=0;fontFamily=sans-serif;" parent="5sxOvh6XKOCeENeX7emo-81" vertex="1">
        <mxGeometry y="60" width="90" height="20" as="geometry" />
      </mxCell>
    </UserObject>
    <mxCell id="5sxOvh6XKOCeENeX7emo-82" value="" style="group" parent="1" vertex="1" connectable="0">
      <mxGeometry x="45" y="255" width="60" height="90" as="geometry" />
    </mxCell>
    <UserObject label="" link="https://xmonad.org/" id="5sxOvh6XKOCeENeX7emo-5">
      <mxCell style="shape=image;imageAspect=0;aspect=fixed;verticalLabelPosition=bottom;verticalAlign=top;image=data:image/png,iVBORw0KGgoAAAANSUhEUgAAAC8AAABJCAYAAACtin/rAAAABHNCSVQICAgIfAhkiAAAAAlwSFlzAAAN1wAADdcBQiibeAAAABl0RVh0U29mdHdhcmUAd3d3Lmlua3NjYXBlLm9yZ5vuPBoAAAosSURBVGiBxZt7TFTZHce/Mwwzw+CCiIiOCAR5iIgYXzE12Yds3GQ329Q0irJWHqvVlnV9VpdUWh/1URYfkTZmtdZO0xqtImq6KRbxUTVG1J0OrkoRXV8VHGCGYZj3zP31j+kgI/fceXBxv8n5g/u7v9/53HO/99yTuQcJEREA6HQ65Ofnw+12g08zZ87EuXPnIJFIeONiqrW1Fc3Nzcx4ZmYmMjMzIfUdyMvLw9KlS2EymXhbfX09qqurhxzcbDbj3r17cLlcvE2lUiE9PR0AIPGNPAA4HA5MmzYNd+/e5S2sUqmg0+n6ksUWEeHy5cswGo28calUinfffRexsbHev/sHFQoFNBoNZDIZb7LVakVxcTE4jhMZ26uWlhYmOABkZWX1gQOvwQPAtGnTUF5ezixw7do17Nu3b5CYA2UymQR9Pnz4cGRlZfkd87ONTy6XCzNmzIBOp+MtFBUVBa1WO6BYuOI4DpcuXYLJZOKNS6VSvPfee4iJifE/zndyZGQkNBoNIiMjeYvZbDaUlJSIZp/m5mYmOABkZ2cPAAcY8IB39qmoqGAWvH79Onbv3h0i5kAZjUa0tLQw4yNGjEBGRgZvjNc2PrndbsyaNQu3b9/mjSsUCmi1WmRnZ4eI7JXH48HFixdhNpt54xEREZgzZw6GDRvGG2eOPADIZDJoNBooFAreuMPhQHFxMTweT4jYXt2/f58JDgATJ05kggMB4AEgJycHmzdvZsYbGxtRWVkZqMwAdXV1obW1lRmPj4/H+PHjBWsI2sYnj8eD2bNn48aNG7xxuVyOb775Bjk5OYFK9dVraGiAxWLhjUdERCA/Px/R0dGCdQKOvK+YRqOBUqnkjTudThQVFTHXRa/r22+/ZYIDwKRJkwKCA0HCA9632/bt25nx27dvY9euXQHrdHR04NGjR8x4QkIC0tLSgmIKyjY+cRyHd955B1evXuWNy+Vy3Lx5E5MnT+aNu91uNDQ0wGq18sZlMhny8/OhUqmC4gl65AHvm+7IkSPM4k6nE8XFxXC5XLzxpqYmJjgA5ObmBg0OhAgPAOnp6YL20Gq12LFjx4Dj7e3tePLkCTMvMTERqampIbGEZBufiAhz5szBpUuXeOORkZFobGzElClTAHjXSufPn4fdbmeen5+fj6ioqJA4Qh55AJBIJDhy5AjzBeJyuVBUVNRnH51OxwQHgMmTJ4cMDoQJDwCpqamoqqpixpuamrB161a8ePECz549Y543ZswYJCcnh8UQlm36a+7cuaivr+eNyWQyVFVVMeHkcjnef/995vIjkMIeeZ8OHz7Mu1wFvFPjnj17mC+vvLy8sMEBEeDHjRuHvXv3MuNPnz7F8ePHBxwfO3YskpKSBtX3oOEBoLS0FB9++CEzXltbiwcPHvT9rVAo+maiwUgUeAA4dOgQhg8fzhvjOA7V1dV9s8+UKVMgl8sH3ado8Gq1Gh9//DEz/vz5cxw7dgzjxo2DWq0Wp1MSSbdu3SK5XE4AmE0qldKVK1fE6pJEgXe5XJSdnS0I7mtZWVlks9nE6FYc+HXr1gUF7mtr164Vo9vBw1+/fp1kMllI8FKplK5evfr9wjudTsrIyAgJ3NcyMjLIYrF8f/ArV64UBHz77bcF46tWrfp+4K9cuUIRERFMsJycHHK73TR//nzmORKJhC5fvvxm4W02G6WlpTGh5HI5abVaIiLS6/WUkJDAPDctLY16e3vfHPzy5csF7VBeXu53/okTJwTPLysrezPwDQ0NgnbJzc0lt9s9IG/BggWC9rlw4cLQwlutVkpJSWFCKBQKampq4s3t6OigUaNGMXNTU1PJbDYPHXxpaang7a+oqBDMP3nypGD+ihUrhga+rq6OJBIJs+O8vDziOC5gnYKCAkH71NfXiwtvNpspKSmJ2alSqaQ7d+4E1WFnZ6egfZKTk6mnp0c8+MWLFwve7s2bNwfVmU81NTWC9ZYtWyYO/NmzZwXtMnXq1KDs8roWLlwoeAF1dXWDgzeZTDRmzBhBu9y7dy9kcCKvfRITE5m1k5KSqLu7O3x4obkZAG3bti0scJ9OnTolWL+kpCQ8+JqaGkG7TJ8+PSy7vK5FixYJXsDXX38dGrzBYBCcEaKiouj+/fuDBicKbB+1Wk1GozF4+Hnz5gmOxs6dO0UB96m2tlawvyVLlgQHf/ToUcFCM2fOFBXcp8LCQsF+z549Kwyv1+spPj6eWUClUlFLS8uQwHd1ddHo0aOZfY8ePZq6urrY8B999JHg1VdWVg4JuE+nT58W7L+wsJAfXqPRCCbOmjVrSMF9+uSTTwQ5amtr/eHb2tooLi6OmRAdHU2tra1vBD6QfRITE6mzs/MV/AcffCB4tbt3734j4D6dOXNGkKegoMALf/DgQcETZ8+e/UbBfQq0GDxx4gTJ2traUFZWBpbWr1/PjA2l9u/fj/T0dBDjw41erwcsn68gz/NnYY2OtXw9uf8jzps2HMGgAhniFGRZ+xl52l6ElNw9IYUMw6TUW7qYPA+GZv4Xkhf+/804QkmWDavJ87I9qOTuCSl9uYa3Iqj3p8XkefRwiJFfSWLZsJqch78C2Wx9fpKoVFAs+zmUazdAMjKB6Uv73krYv9wJMnW/OiiTQbG4GMqNmyBNTgnobe7JYzj+8qegnwU/ERF52tvIunENGeOjyO9OJESTteIL4ro6mVfPmbrJtmMLGdVxfrmG2EgK5nly/euif14IzW954HnZTtYv1pFxpMr/Ika9RdYtm4jr5l+aEhFxPSay7do28CJ8z9OL/4oOz/sRmTr0sO/9Eo4/HAD129QjiYmFcuUaKD5bDUlM7Otp3lxzDxwHqmHfvwdkNLzKVSohX7oCynVfQDoq8ZVtnj2F829Hw7cNczQ79GT95QYyJkT73wl1HLmb/i1oB87cQ7bK7WRMivfPHaki5z//IZgbrIL66YPr7CDrpo1+dgoWgDObyVa1k4xjR/Tl2g8dGBS0T0F9yuT0L8E9fQwS2LnBvLOGLnBPHoMsvSHnBi4uIPfdO9T7kwVkiJb43XrTD6YGnM89j78jS9kyMsRG+uV256aT61ajKCPPu9fcc/cO7Du3wnm6Buj3PEdMnISoTVsQ+cN5AOM/GLjH38H+5Q44/qoB+m3XkianQFn+KygKlwD9trh7Wpphrwq8sS7gyLvv6Ki38McDRzovkxzHjxJ5POyRfvSQLD/7lAwxMv+RHq8m+1e/J3I4ePMGPc+7dVoyL5w3ALo7O5Ucf/4jEc/Hgj7oh63Uu7xkALQxZRTZ9u8hLsAH40HN8+aCH5Hr72f87CFVj4Vy4yYoij4FGNvQAcC6/nM4Dh0A+u2nkcSNgHLNL6BYsRKSIDZ2ci/b4a6vC882fiOdmkj23+0jstsFR8un/gszY2IMWX/za+J6TEHliiEYVCBjUjzZ9vyWuBA/6nZPSHm1/jF0BU4QWbDt2EKcObgf81+XbW8lcfqXIiMFr/8BkuXNGbgrHycAAAAASUVORK5CYII=;" parent="5sxOvh6XKOCeENeX7emo-82" vertex="1">
        <mxGeometry x="10.680000000000007" width="38.63" height="60" as="geometry" />
      </mxCell>
    </UserObject>
    <UserObject label="xmonad" link="https://xmonad.org/" id="5sxOvh6XKOCeENeX7emo-11">
      <mxCell style="text;html=1;resizable=0;autosize=1;align=center;verticalAlign=middle;points=[];fillColor=none;strokeColor=none;rounded=0;fontFamily=sans-serif;" parent="5sxOvh6XKOCeENeX7emo-82" vertex="1">
        <mxGeometry y="70" width="60" height="20" as="geometry" />
      </mxCell>
    </UserObject>
    <mxCell id="5sxOvh6XKOCeENeX7emo-85" value="" style="group" parent="1" vertex="1" connectable="0">
      <mxGeometry x="450" y="209" width="146.46000000000004" height="94" as="geometry" />
    </mxCell>
    <mxCell id="5sxOvh6XKOCeENeX7emo-83" value="" style="group" parent="5sxOvh6XKOCeENeX7emo-85" vertex="1" connectable="0">
      <mxGeometry y="3" width="64" height="91" as="geometry" />
    </mxCell>
    <UserObject label="" link="https://github.com/CDrummond/cantata" id="5sxOvh6XKOCeENeX7emo-52">
      <mxCell style="shape=image;imageAspect=0;aspect=fixed;verticalLabelPosition=bottom;verticalAlign=top;fontFamily=sans;image=data:image/png,iVBORw0KGgoAAAANSUhEUgAAAEAAAABACAYAAACqaXHeAAAABHNCSVQICAgIfAhkiAAAAAlwSFlzAAAG7AAABuwBHnU4NQAAABl0RVh0U29mdHdhcmUAd3d3Lmlua3NjYXBlLm9yZ5vuPBoAAAiBSURBVHja1VsJTJRHFMarGrW2TVsba5u2MdUYG5M2NaaJPZJ6a1tbS2xFFliOKpaa2oAopyjGcnrgSeXQCAVNPCoICGi1HhEUbQXlPhSVUwSEhQWn7/3dpbA7M/+/7OyCL3ku7j87M9/738y8a2xsLEz29vZTHR0dVwJHOTg4nIHPSuAnwMSA24DvOTk5ZcPnHmAPlUo1HboYYvMska2t7TAAOhcAxAHfpwA1lWuBE6HPL93c3EYMWuDwpsfDRIOBqwWAZgoDBBEBWvLmoAGuVqtfhwltZ6i1pbgDBBENQn9nwIAHBgYOh4msAX5sReCG3A4cCDzKquCdnZ3fg0FvDCBwQy4CLZxpFfCgeioYsNWUCXp7e5O4uDiSnZ1NCgoKSE1NDWltbSVdXV0S49/4HT7DNtgWf2PKGDAvLWoD0FCL7e4wwF6lE/Lz8yNpaWmksbGR9JcaGhrI6dOnpb6UjguakOTh4TFSNPjnoPNkBYOTyMhIUlxcTERTUVERiYiIkMZQIIizdnZ244SAR2lChxlyg4LqkdLSUmJpKikpIQEBAUqEcBVOqOfN3emHokrxBnJ1dSUZGRmku7ubWItwrPT0dOLi4iKnkdlmLQfd+c4cwMvLi1RUVAgB1dreSbRdpgkRx8Y5yGjC4X6Bhx/a8jreuHEjaWlpEfZW565LJpPs95P0nHLTBAcnSHBwsNwJsdrUo24S/LCJ1WFYWBjRaDTCwOPbHz43jNh8HiKxbdAJ0tDcrvj3OJfQ0FCeEDSgzR8oxT8EBHCB1VlQUJBQ8Eh5JTU94PU8wXYXOX5R+WnS0dFBNm/ezNOCfxQ5U47/EXPNo8qJJlR7QwH01ob6x22K+sEl6enpydOEtVzwIKEXoFEN7ce444ra8Awp+dwdpgCQJy7bTbKuVyrqq7y8nHc6NK9YsWICb+37sKSHR52l6GDGLa4AkIfMDiE/RWWSDm2XbH9oPXK0IJz19kez3j4aOZY853efzJMVgJ5n/niIlFQ/krUTOMZSK2yIr9Le/mqWeWtpC88/7i8qWLeIdOr3477YRg6dyZc1nTlaEEjb/K7RGqNtb2miAR02J5Q8fUqI575zTG3wjbnA7RePa4YAKvrEGnWBS2pjSzg2hvRNwHEjcC8t2dHz/Je9Z5lC2JJwmdlvYWEhTws+7v32g2iNfHx8rGLbf/JzghGwt5bv/X9NgyrQhIT83Lxwcqu8jtm3r68vSwC7etv8l2iN0J+3Bk1zjjECNt01tm9sACxDNI5oQli26SSz75SUFJYACiXw7u7uY+E/nbRG5gQzTKHXvjUGNmtNglG7HceuUQUwdvE20t6hpfZdX1/PXAYqlWoiqv8cVhjLGoQb3Yh5YUagFm04atS2rqmNuRfcqWpgjsHyGEHzv7fRRXaNHsbHx1tFAI9aNFRAy4P/oLYftSCC2j6n8AFzDIwxMvyDTSiAKNpDDE5ag4rvNVIBrdxmbHnmV9QzrcRGjveYmZnJWga/owDSaQ8xQmsNulJwnwpqXfSfRksFHSNa2/d/iOOOkZ+fz1oC11EAubSHdXV1VhFAypVSKqjgw5f7gEeBsNY/OlM8qq2tZRtE8M9t2kNLuL00imc4Qjthx9dTYvZtJvgl/sckAcm5yQwB1KMAqmgPtVqtVQQQcTSHCgw9RD3tZBx/sz2TmMdfb0IsrEiRjS5fP2AC2HDgPBVcWk5ZT5umVg2Z4X6w5xmeBKFJVyULUQlxBYChIkssgb/Laolf7AWyYP0RMtkhWjJZcfIj54eTd1XRxG7LKZKQVUBUW1OoArhZWtvXxQWwl/KrSUZuuSQQU4izBGqYZjBuHP0xatBNnep0QLF/z2I8HkUR5h0ZdkAxCuCEiGMQ3zgGK8wFrufKmsfCBMA5Bi/hHhBiriF09kaVZI+LAo9cXS8u58AyhEADYlAAatpDNB+V0L26FvLiV9uFgkeubXoiTACxsbEsAXihAGaY4wytApNVNHg0bTu14mKQnPTZQn3e/xGtAebn5ehtu33CBTB+aZQw8Cx3GAsqelLo8MVJWiMML/fHlzeX53sfEWdqswMiF2UjwkpCYp+tTRQugMijucIEwAmJBfQIQKVSvYylZ7SGGF7mRl6TrwoFP3phJNe1NYV4QVG1Wj3FsBaAag9gWYpcZleE4aPnXSeuC3v7nLD4RVoxxGJWYgTLUrj5uAdNknlrLniXcHFBWJnEiJqaFocHN2k/wDSTXGqsTaOVfPbeeX6ljEmQrYlXhIHHufr7+7PAV2HRF6skZhlLaliTo2jd3W0k6387T974bo8s8DGLIonDr6lSqEskySRH3blFUawUGaacMfWslLq6n5LbVQ0k6dwdKfeH2oHZXeR9p26QywXV5ImmU7h7XVZWxkyPo/MjW1YLu+OH0KiLVSAhsi5INDU3N3MLJEAAi5TWCO3mFUeJLpERQQpKZI6YUvs/Bn6Uz+oMC5IGkxBwLiEhITzwd93c3F4xtVJsGu8OAGoCqtxAE0auZN68Fpb1rP4WSuKp0M3qHNebKRujJTY8maIo/q6vUAireAPgjovHjrVLZXFMuVJZaiVIP4XgK1ecjIaHnN8gysJTWD6/Q2jJPKoSbzn0riJFJ0Q0YZ8c296Qt1rqtshS4BYlk0BXOjU1VQpImBPMQH8e+1IIXMOy84URuM6TYZA8U66zoAGFcbmsrCwpQqu/MoMJC2T8++HDh9IzbBMTE6OkCtyQy612bwjNSSw41N3TGegLU7gs95t9OaKfdwan6K7DDhT4PNDIjwbD5clZMJksKwK/ibfXMKA7qK7Pwhr8FCZ3UOlGaeolSd31nfmD/kI1+hJYgKS7QF1pBmi8fH0Y6/exkt3mWSW844u3vwGHJ975hc9jur0jV8eZwMcxVQWf3rCuv8bTxhpz+xeHzlKyPw1LwgAAAABJRU5ErkJggg==;" parent="5sxOvh6XKOCeENeX7emo-83" vertex="1">
        <mxGeometry width="64" height="64" as="geometry" />
      </mxCell>
    </UserObject>
    <UserObject label="cantata" link="https://github.com/CDrummond/cantata" id="5sxOvh6XKOCeENeX7emo-53">
      <mxCell style="text;html=1;resizable=0;autosize=1;align=center;verticalAlign=middle;points=[];fillColor=none;strokeColor=none;rounded=0;fontFamily=sans-serif;" parent="5sxOvh6XKOCeENeX7emo-83" vertex="1">
        <mxGeometry x="2" y="68" width="60" height="20" as="geometry" />
      </mxCell>
    </UserObject>
    <mxCell id="5sxOvh6XKOCeENeX7emo-84" value="" style="group" parent="5sxOvh6XKOCeENeX7emo-85" vertex="1" connectable="0">
      <mxGeometry x="100.00000000000001" width="60.97000000000003" height="90" as="geometry" />
    </mxCell>
    <UserObject label="" link="https://www.musicpd.org/" id="5sxOvh6XKOCeENeX7emo-47">
      <mxCell style="shape=image;imageAspect=0;aspect=fixed;verticalLabelPosition=bottom;verticalAlign=top;fontFamily=sans;image=data:image/png,iVBORw0KGgoAAAANSUhEUgAAAIcAAACbCAYAAABI84jqAAAACXBIWXMAAAsTAAALEwEAmpwYAAAAB3RJTUUH1QQEAQwtHG1v5QAAAAZiS0dEAP8A/wD/oL2nkwAAJoZJREFUeNrtfQmUVNeZ3l/VVb3v+0av0OxiXwRiMxISRsLSSLYUTezjc3LG22Sc5MycZDwnZyInnsxknFiZMzPMeE6i2JFHjixLsixZkiVhQAIBAoFAoGanWRq6aWgaaHqh6Xr5v1v3vrrv1XtVr+kG0d3v5/xU1au13/3e/3//cu8l8sUXX3zxxRdffPHFF1988cUXX3zxxRdffPHFF1988cUXX3zxxRdffPHFF1988cUXX3zxxRdffPHFl2QSGKW/O8Q6iXUe6wzWJtYJrKWs2fL5m6zXWC+wnmJtZt3N+hFrmz/0YwscOawPsH6RdaUEQvAWPucG68esr7C+xHrRh8HoBAcG/x7Wr7E+zlpk//0sQalCbH+TISWi1PZ+WJZfsP5IWhdfRgE4gtJC/Il0HQENDSnBYDAFtwCFPOb1c41IVG5CteN9rBtY/5q124fF3QmOFNY1rN9jnasBgvEQDPFtKGBDQkpKCuXm5lJhYaG4zcjIEMd48Km3t5euXr1KFy9eFLdsOSxAGRwcBEgGjNgTsB7fYv3Ah8bdBY5ZrP+ddbH6XbAOLGHcmiYlGKTi4mJqbGykuro6mjBhAuXl5QlAADd4Xt2q+xj7K1eu0LFjx2j//v106NAhunHjhg6SAah8jNu/kK4m4oPj85Us1v/A+oesaU6gwOBCQ6EQlZSVU35BPkmPYv4RaalhKi0poaamJqqtrXUEi7qFFdm6dStt2rSJrl+/rgAUGRgY6Nd4yfOs/0YSWB8cn4OsZn2WtUG5Dx7UVIACYMAAl5SXU9WEGiqvrKLsnBwxuG5yjQe97VwrXevqokmNDbRkyRLKzs52BUlPTw+98cYbtGXLFmLLETUbDBCNj/yK9V+x9vvguHOSyvqnrH8seQYGK8yaClDkFxZR05SpVMsDHA6n3tIXXO68RCePHKHpU6fQ8uXLhdVxcjnQ48eP03PPPUcdHR3ivTdv3ryhuZkXWb/BOjjewJHyOXxnFes/s/4+MCGtRTrIZilbiaUrV9GcBQupuLSEUoIpZNzil2RkZFJF9QTquNRJWz94n+qZn2RlZZmAUFEOFBxm8eLF1NLSIsgroiHpziIyyQZz9b4Pjtsry1hfY52uWYv0vPz8wNIVK2n+4nsph8llfLpiGJkzjmAKiorpvXffpeKiIipiVaDQNS0tjRYuXEhnzpyh9vZ2BRBDAuRe1n2sx3xw3B55QlqMPIw8n/w0kM5Z8+bRqgcepEK+eoOB4O35I9mllFdVsQX5gPIZLLAUTgAJh8M0f/584WbgYhA+MzgGWYHUVdLFdPvgGFle811JPFOVG2EwpDz48CM0afIUwQcC0lK42QtbjmLoP4IHv6yikrZxlFJZwRFPfj7pCTR1i98yZ84c2rt3L127dk0ABPkQfiqTtYb1VR8cI/f5/1WSzxSZ3Uxnshlcs+5hysvLJ2m9HWBhxCHMGC5KGQCl5RW0aeN7NHPGDOFKnCxIamoqTZ48mbZt24YoRqTlOYIBIUWBbxfrCR8cw7cYSEd/JzougRQ27+lLl68ILFq6lAcgjQlnMGYvklAMY4R+FKKU3PwC2r1jO82ePTsOGApEBQUFwoocOHAA7wnK2gyeRq3nuRH8SeMOHEGZZfxDebJDaenp6eu+9Bg1CTcSjg2EaTMMTyR0uO5FxNFsGS51dlIoGKByjpDs0Yt6jCzsvn37qKurS+RgZP6jhPUo68GxDo7gbfrMP2f9IwWMzKystEef+DLV1NZSODVsyTF4UoeBG67UT5xEmzZvQdLL9TWwHE8//bTKjQRViMvy7z6nNMCotxw4cX8mXUkoNzcv7dEvf4V9fRmFhcUgk3w6Z+IC7n7EGDlLjgFHjHql85Ko0TiBElJSUkJHjhyhCxcu6NajjKJNQ+dZw6NcQ/KUxNWRQiMMjEdZ/5PiGFnZ2WmPPfkkFRYWiavQwIgb0ZEH24hYzE3ssay6We7rt8YIgaS8spL27P6IVqxYIawZPlcV6nRXs379ejp48KCyHlmo+LK8M0YMBE4mOuN+yvoMaaWCkQQH+i5+LKOSYHp6RvpjbDGKi4opFA5JTARiAIUFiZDGNvifuGPYwGHEQKG5mJEKb/MYuCCdIKduHGf69Omi+nv69GlR71Eya9YsYio1qpHBQA8cPXq0orOzExFlLUUz1wbRyNVWEP+/S9HUeIBDxAx2JYGamloGRpiikDCiXkFUWCOy0srHZcWV+FgkYgjrIo5F1G3E8RZX70hYkMGbN6nlyGH61je/4Vp7wX0U6F544YWoL5YA+clPfkJPPPHEqDcdSPitWbMG5BsndCXrJ6zXRoJz4NL5JesUmflMf2jdw8GJTZMpNS3VLK0HtP8CLmzj9gWwiUPb0y0tNIetAKIYp9oLFEmzd99913Q5grMwQB9//PFRDw7UnEDM3377bfzhyA5WsuaORLQCjrFAnsy0BYvvDU6bOZPS+EQjHS4IqLoCAQztcSwKkW5F3Q+Qa9RCNtcyElJaUSk4RaLwuaysjBoaGizubPPmzaLbbCxITk6OnWrMGC441sokFwYr3NA4MWX5qlXiCgzKZhu7BuXox45RghDWBgp1VY9wWFtWXi7AoQbdfqsEhTn9ONLriUA12tMcwwEH+MUGRUDz8vJSH3nsMbYYaRRKCUUHLxgDANkG3P44HhTSOgTI+hlEcWZ/2PE8R1KXuq6QjEJcZcqUKXEWZfv27WM2z3Gr0Qq4yj/IbKGosH5x/ZfYd2WLJJcYOJBH6ywB8TgQDUjM1Kh6hQhk8AojCgTTtxsSIIYOEGvIORLEFPkt9JmiUdkJcPgORCxoYIYrQQ8qwPT973+fNmzYcNcPNP6mpUuXit+K6vPtBMdXWb8gvzR14eLFwfrGRsEzxGDpSSuHEx2QwauhwGHmFWLHzCqt/LwoUIxoOCuAMrIAyWdQnDp1SoBDgcGe80DYioRZc3MzzA1FUoLUmZZPnf9tyyjIZhh06H/+a3p840Z66KGHbhs4wGS/r1Lj5RUVoeWrvkCpjEbwDJXkMisllpKJsh4BDTgqy2FopsSQFsOwgkJajRhAaMQsR0FRochjoFyfiJiClAIc5p90uR3xMFFaxt0PkNJq0VDt2Zrewlf8JUVnnsGdpK59+BFhasMin2GPPGyPKRnxlFyE9HDSzjls/GOEIpf0jEy63NUVBwY7MUXUErN+0jq2nx6bjHSIr8cstN9T7mTOvHmB6gk1Zn4gaBtwcoxIyEI6ySGspYBOSAPxr6dYBGNJsw+HlLLVQzd6ssxrDByatI3NmZRDcStIdv0VxeomoS/c/wADI2w27BiaO4gbLuVG1G1Acg2TZwS090cZqlnOD8TIKbiG6WK0hJShPnsY0teffIoKSvx6Ck98Y3vLuAcH5m+o+SWp969ZI+aRpIZTdYahnbHoQEcCTlXXKEAMk3YaJhgEHTHrKYbEUMAKED4+yJFCe1sbXWg7T9e7u5kfhkXHOloB9frHUOQmcwfMX0GRUHctOjFVDcriseRQdOXSuAYHKPwfayQ0OGv2HJHToGC0YObE7qOWIFYwM0Fkcs9AjKQGyDzZynoYRixsxTE8O8Ah5KX2NrrccUG8OyuUQgZrW/t5OvjJHsrKyaXFy5dTaVn5LYR7QcxZiVaQtb/D7n7QXtjX1xc72Ns9rsHxbym6HgZcSircCU5QSiglWkgzB98MSmwLIUTzGKa3kdXXaHJDcy3SbUStigSbdDg3bw5Q+5kzIjLIz8ujwryJYiChqAtUVFXRhAsXaN+nn9J7b/6GVq15SBwbai4An5coWsFrENKOB3B4IaQo435TWY3aurpA0xRZVCOyRRn2rKY9YiFXwmq+h6xRCR53XbpE7SdPUllJMVVUVvJ3p5nzZ1V1Flc0pjeggBbmK3/bpo3UKwmmZ3AEg8KtJEujIzqzkNKe8QsOTCbOklYjvPqBNcKdgISKiqtLWEoqkRUXpZClwEYWsFgjFliYtjOnKdLXS/WNDSIqUqBwUkgW86CmxkaRxTzwyd6hOpakKXQ1Acoi/T3jEhxwJf9SnpRwXX19oL4hOkhq/PTcBtnCVrJZAjKPK+jEwlJLqVx++ZkTxykvO1tYC9JAoKxFxAaOiARIcUkJ5TJIjh89Qjf6vc+BRp+JG5nVrUgcgIIp4xIcWMgkU1qN0H3LlkcrroGgxWXYQWG1DnpVVYLCYiFix0izOmeOH6XyslIq5OhAH3yLtYhEHC0I3EN5WZkgr61nTg8JHCpScXMpIqqx85JbnOw9msGRK8NXwTX4agxMnjpVgIOcSuf20jq5ZUrJdCFE9vki0efOnT5FZcwf0GBjAYYLGJyAg/fic9vOnfMOjohhCWPdrEccOELjDxxfk2ly4VKW3rdMmyFm4w86v9AylwG9iOaQHreDAv93XuygLP4euAbREghAOIAikoB7QBFRIKXfeWkIiwVKYmsHgx0gcdMZxhk4wrrVyMzMDMyeO9exjY6InOeZUCCW3o4ZCofbGJBu9PfR9cuXxco8EdUzagOC4huJrIjSDAZI99VrngtzqbLdwP56+2PV/WXECjPjChxLKLoIrLAaMzk8xAo5saZb2wTkGAas0Umca9GjGa1eogjo8WM0dfo0kf2MsxQeXIpOWjFwqBRjDnSiiUuW+oA9CnEQAMOS44Dkl4xqEOjRnhdwfE0OPJ4PzluwQJxoM+R0GHDSW/rsOQw9BlE3ltwGc4PWVqpjiyHmjyRxJREX92J3NXARuEUCLZkAQGi0TWY1LrNlM58buCG65qmgdFSDws2yOoEDPGOdci8oNNXW1IpsqOkKHNv1yHLfyj3iE2A6kAb4JPd1X6NSjjB0UEQU57BHJx5cCknr4VX62RpgqUo3UKjHXVpZ38DE+4H+URXKxqUDtHPpBRzotc+W13jK3Pnzo0RUtwZm7sKhn1OPQsjW1WU3IvL1Z06coGnTp4soICItQMSjS4kDhOZWVD7Cy6IwV69cEeFvshPb2dlpBQ9uf/KfiT7bOeqshf38egHH03Lg0DgcuAfpaPQc2vMasTDDChCyuRL9NbbUOaSvp4cy01JFdJFo4J0SX5Ek2VK4CuQ8vPRMXrncSVWyFpMofX7OKTRGbeWH3yRqPT4qwOFkNbyAA2dHrRyM6iuVlpaJE2zPXVAgvuuLHHMbZMmEkhat4DVnW1po0uTJ0ZqG4hoJQlivis/v7+8Xk7dTQsnri8ikYk2OZHL27NnYyZPN+0HMrb56iQHyB0Q910YtQJKBY608Jhp6pk+fEW3/0waTLPkNa8o75lZ0txEgrZ/P8h4MSAZbDZBdc5qjjXjGuRQvgJEu5QZIZk62tzCWAaRqN4lOaisTZ3Vf1VnQdBTEypRnjhL97C9HjVuxAyQZOB5RLgW3M2bOFJOg7SAgJ94RCGieJBC3OEushhIDTuvpUzRx4kRhNSIeAODoUlxeC4KJz83NzfMUqRQU5LvWUpQghMVSlPrxqqpKqq2tYYBEWJmgvvMzok+3jgqrMZRopVDmNyApyGvU1tWZdRRLTsMCEFs+w2I6yJIIs9zn33OTLUcWf48+0BFtwnTSxBce268GeXtdlusLioqSnrCLFy7QxMbGpCf1/PnzZs5EndAc/v1TJjeJMDiIVZAR2v70B9GO9DEUraxkzVCWo66+3uzZsALDodpq4xGWkFXHiXk/INLalZWVIkKxgCKRS7HXWRyAQZJvYH3zKDiKk56wjvY2YcHcailKDh8+HHcc4S/qMTOmTxO4DyK8PXmQ6MM3xpRbuU9ZDYxfA19JIHOkN+PYgWHrHneawER6IkyzPO3nWql6woTY0gpuake4Pe/hACB0wV/m0BREtKg4OTjAGbDzglslVj1W4DBLKvz5ubnRCcjFxUVUgvVNxaKD/PpX/o6Jz+Bd71a8WA6M11KVFcXLJk1qkuly0lLd8cW2gO4+yMl6UFwDEMAQDkaTanauEdEiFi/VWDe+AX6Qn19AaUkWV0FZv6ggP+ncF1g4bMmhgyUvL9dSqGtqmiijFwbF6SN3Ze7DCRTJLEepqqXAcmRmZFBVdXXMCWhRiL3ops8jsRBTpytUKhJOxSXFdFO25Jnhq0v+IuLkUlwsDKRTprgrJ0xIerLOswWbNm1aUqsBvoG5tPoxNXVSCawPwuGASL7xa959YUzkOeZTdCcDYTmwSBr6JGOtfLar3wIMPUy18go9J6L5Furs6BALsemgcAKE/ce7Zkq143ApHTKiqKqp8UBG28WCtMn4xmeffRYHoEKHvEjNhGqKTstggOzZRNTfe1dajqG4lcXa40BFZRWFsL4GxVdPrT0YOhDIYkl0pOjP4UFPd7dYLCRiD0kTJL4iHl0Kmoq7r18Xc2qKihNXSxHq5vPr0jxUY/fs2SNuVUoefCMvPz5MLisrjbpjgKPn6l3nWm7FrczQqrBUXV0VnRStl+ItALGXV7VUuQUN8S4F0UQ4lOLoUiIObsMtjI04JL5gNc63t4vvq21oTLhxTzRKaRc7O7mly9UtIp+jR49ajhWxSwk7ZF6RNCw0XQvL3k2jMjsqLgA5ZlMVWPDCqqpq0tbyk+tjGOYcEoPkDDQ5Wz72mhgUzFerg4bMijIBRN9EZIguxYsVGRwYMF1KY9PkpCeqrfUsrV29ynyMubKqJK8vFofVe/T8BjQ7O4s5yFXHz83MyiQDvwPE9OAOohOf3lkEZGQzi5wglolIVqZP1CsbkiX6Ut2SgCxaZjcapM1zjXItBROzCmuCRE1UUnOX5Ow3CZK+3h7BZywh7BDrKORy7Hxbm3AVmBKZz1dvolQ4QFrA0UZmZqYA4iuvvCL2fOv32K1+5OgxoQklwp91eDfRd1feYfvA57yOr/fv/g2HUHMTcg79mBM4JupkFO5ENOdaViQ3zO801GRmw2otDHOiqwKGdZ8D9ai3p5fSGRwRpyjF1r/hxqqdLEeEQ81zbdFdyKfOnJl0UvXZUy20cG70xL311lu0ceNG+t73vkcPPvig55Vv7tYkF1Zb/sEPfkA7n3mSaMOHcZ1qijd5AUeTTguQBk5LS49ZDmk1DImGKDCkWzEUbOJB4LQFRkDmFbJzc+JcylD7N8iG/jOtrSIXkZdfQDV19Un7Rq91XRYL3+O7sCrgt7/9bXrmmWdorMiCBQtE1rd780tEj37nltwK3EilNnaUk50jJy3ZyKVGTC07YOile1tNxZpZjUUIYg1Pjy4k4oFvoCfkvLQaM+fMSUpEuzo7qYEBhNeBSyB/sWjRIhpLUlpaSvX19UysTg8rfV4uXYoYvszMDGtvBulTG/UINWCJZKwhiS3ItZTxyRqBuPRvRLxOR+DXHT95Urwe63p5IaInjh2hJUvutVwxwWCQxpqIv8kY9JQ+d4tWynXLgXRzQM5yVx4joLkVfXa8xXkESDvulh81KBROFaQP7mvY/Rv8XBtbDLVcEzYQVFuVu0nP9etUXlwsvj+ZYK837LdiGHf3vjtYAhPrsw81CeYlWrGCQyaE9BU1SAtVDc0CmJ9nwYQTHY0dRTtgz9UrntxKJMlzWLTlREuL+PwJtXVUW99g8hHXAT9ymB5Z+5Dr+htmmMugu3ftV+lSalPCksBdQEEp8/qPaMfr/+QJIPpcXy+EtEQPY9PT0rWBj60JqlsNk5SaK42aq4lqP9mxQCtmwbe3nqVyPVq5BZcy0NdHzYcPR1fi4ehiyYoVSVcWhMXK4NfCH7ulyZVgZcHOQAUZRdPuevfRw+f/8OEjnsHhBAo3zpFuxaERy4ba+nacvUXiQptdEMZiucNE0Uoyl3KTI55DDIxuuWziwiVLRZQShaT7lISjzZ/RihXLPbmJu92VOFmQ25E+t0z0dJodZp1yEHM6ia2t8yp/+KyBm4Ni5pjXWW06cAb46sfOSR2Xoutw1dTV0cxZs2Pnx+UcoeaSlZ5GFRUVoxgAty997hkcAZdII7kVIWtDscsrsYgcVgt2yo66/XC8pp8BdejQIWo9f158Dnab/sKDa0V3PMVlXGwZTbYaK9n1jDu5xCH+gW1E+7dS4NBu4VK9hLGKc6TqY44klTUIiUUu8STUHq04BijxMXhZOW393UYxw01EF8mIKf8B3Vev0qcHD5q1k3BqKq0V661nibm1ZLgD4xq/t5CBVCTX+rAvbDeWpbHjMM3e9VPxt8556otidykn3uFGSC1yRfZeylWXHM54fBjrjAH3Kxn9qS+cO0e7P/qI5sybZ6Z0nTgGurrO82sPNjebTcMA1NpH1lNZeUWUecf9YYbFjB4+8Ck9/dSTY4RbDE0WL14sMr86AIYSrWC1M8XmRHlaLbdo4ZyGWY9NnM5IZjaM6L6uM++5h7Zu3y4GfOrUqZYudHw/8hEdFy6IBBeyn7E+ijBbjPVU3zgxOhvfAYT633n29CmaNXOGKLCNR0kWuibLc1yV4BCC3AEqlqHQENavlctEepq6LDGD5Sp37dxJO3ftEskm+EJMh0Boik1uLjHh7OzqsiS0MniAH370MaquqRH7wcX5EluOAxO0L19opy/ev9o8ASO9FcdoAYgTGLxYjmu6LcbgYLJwZmaW3KGAtPVCY47EAgXDo9XQXpyXn0/rH/s9+uWL/09EHir6cJPK6mpat/5Rys3LYwsT0bYhtTow/Vub9++nVStXjgtu4SUjmqypyc1ymOcV+fhTLS1UXT0hgaswhr81H3/AIvaHfX299NYbb7guDgt3s2TZMpo9b754j2lJHGiGfqjtXCtVVZSboet4I6KW6FBzK8kaqe3gOK+DAycOYeZ99y1zJZlx9sFiot3DBsP2NG6XrVhJ9Q2N9MGWLXTyxHFBQBGJYN+1yVOn0dRp08WUzMFIdMtRUluQ6mkNy1ochsiEtp89Q09+5SsJr6hkKxaPNcuRyEq0y/ZKlj4dHCfkmyLqyjqDZaSd3Ad5YqJJXYrFGfBNZVUVffmppwTBRCgt8hZ8fBDuYzAi3Ij1/YYjx1A9Hp/u+ZjWPfSgpwXy0csxljkG8lYiI+0CChz/5JNP1J65AwoPChwnLRc2v7jt/Hnqke18cYPriA+nqMTwiBnDklNBNBKNWgbjOIWOBcNex5HW4+ihQzRj6hQxf8SJgOq3WE5hrIDDcLESL7/8slCPH/Fb1q44y6FZ6QA+9FBzM82ZO8+SAIsY1s+KI6TmJwTirmp7yKnnUIw4SmnEv84llaEDo51BncpffQ+HyckErufnP//5mHEr9mynusXmQaLpRxNYCrnoHRJHMMvYaOZN1oN2znFCmpOwdC0pIKX79+0X4PBy8cfFCYZDAsxwuq+lWw0bAmyosABHB5UExvXua9TacpIe/dJ6TwT017/+tZjFNmZcScRwJJ7r1q2jH/7wh5bXooXwxAlhE05IYEDO2D7ysiKk6CVrlChKQYv+cSaHyBOE7M22hksQE/HIQQzDainMDQOdjimvY9jcimGGsoZM+e/btYseeXhdwrXLFVj2c4j70UcfWZj86Lcc7k1RSE+4yCWNgGLWllrRF+b0s5Acih0SHPiUMCqmmPG2m0/44iVLkmQwDLdEqEYSyZWTGHZDYmhQMcgxl6I/B7ewc+sH9MD9qz11d2HxFUxDSLZwyWh2K/rf5AQOwzAvwQ4YXXn4Q1bLgmeqcXK7iljU1YQM6batWy2BQby1NxJbi7gEphHvNZz8TTxaYqRUexzhP/ojBsaypUtMApooyQOL+Pzzz5srEI8Vq6GDQ6+2QpDtRklEV69/d0gDR0SCRdwifY0rEdMAJ02aaBlRw2THNtDYcGOJKGwE0kJpDSMuCjE/2+ZW1IcDGDsYGHNm3WPu2JhIYGFefPFFM55XJyhFbsAz6hNdRjzngL700kuCX+kid8E0JNd0FWU5MBH0kPxgQd8xLRD1jtd+9aoD0uyOJTaPxJGYWEMTK8XUrIQVIBqADOvrMNAfbNpIs2fOEFuIe0kF/+Y3vxFNQgoYioNMnTplzBBS3XqoMRsYGDC6u7uhEaUs4Bm7NDKa0HLgk15lnQZwYB83JE9QAMOXgLwtWrQ4WbiiJaZ0S2JYrIEjKPRoxIiPZmJ5jmj28/2NG2nxooUJLYZOQLeye9y5c6d8HAv3GhsbxIJv+/Z/OgbcSsRtYvRFGYlcsnMKu/FxsxyQV2K5lOhkB3RgFxcX02/festcY4soOd8wbEDRgWFxK/oqwIa6sUYmhsY+u9iabdn4Hi25d7FY38OLH96xYwe98847ml+OfmdFRTk1TZo4pjmHPL8qj9EnyaeT7tMilTjLoVzLJ6xzZCiTAteCZAk6qP75Z8/TN775rVjOIEn9xF5DiXMrhpWkWuyHhfVGgdJy8gQda/6MVq9aZWZuk2VAd+/eTW+//XZcZJKfn0ez7pk5pgpwhuGc52BpYX1DhqobXd5+IxHnUAj7XxrvMFSdBXNN0Ofx2q9+Za3HagvQm+7DMCx5C4ojoIY1XLWRVcOW4wBZ3LltqyikrV69WvwWL7J37156880340wtmn7mzZ1zyxsT382E1IlzyNM6KMnnDRelZOCA/IL1ggSIYLKYsc0kRqx/dfhQM73NLsYwtIhFdx8ONRfDMOJyExYrYti5RiwqaW9vozdfe40qSktEVs+pQcfp8bZt2+j111+XJ0gDBlucRQvnewbYaMyQ2lcqGI7YwYEEwN9o4IjgC06ePCm+CNtrHNi/n155+WWxyY2TS7GoQ/3DtDSG1Y0oy4P7vX29tHXLJlFdXbF8mViv1MmM2h/DysCN/O53v9Oak6Ovy8hIp4UMjLHaLuiW5xhJcECeYz0rv/CGCmvb5Cx2AORc61n6xw0bRCufGZHoDFJLgBiGDgw737C6mpsDN2n3zh302zdep0qORNAc63WtDCR7Xn31Vfr444/j/C6meC5ky+MlgzoWohWbW7llcWoURdvgM+AfMmpBaBtCoQaLuqDPEy4GuYZ/+ocNhP1Ylq1YQaly+0yDrGGsNULR+UbsMZZA2Mvksf38OWpoaKBl990X3bEpCeFUAteHRI8JVn0T4qxMWjB/3pgGhj3xNVKlAbcu4pdY/wXralgPVGoZDAGsjTVXbgSIKxqLg5w5dYr+9tlnxbYYc+fNFx1cAWX2DbK5kpiVudx5mY4ePkynT7WItbwmTZpEjfV1Q1oKQRXRsFyTfc0uSAGDed68OZ5WCxwrGdKRrBm5gQMWA9uUY/n/fP6ifgZIOjqKABD0S6judFgTWJJefu7Vl38p0tpYjwubBefk5kX3ocUSkMwjLnd2UtflLurt7RHbaKC/c8a0aeKzlCVwsw724yDJ77//vlhy2j4fA4IlH2fPumdoXfRjgJCOZDEx0ZlDfPxHrP9XuhcAJA2d6bhaMXNKv8pB9Brq62N7qTAHuMBuQq3kA5Bk82tKGDQII9VKfclyDU4gOXDggIhI9AKaeh20vq6WJk+ZLJaeHC+icw6HXMeIg4NkSv1/sP6JzH1gAaBUAATEDwABKOwDiPtIVMHP6yBQmoxDuAlI8YcffmhuiCNMHPZqkRYDn1EHYExuGjYwBBGODIwOZAwOCAvpkgS7beCA/Bdkm1l/X+U+ABDUXVCvwLrhiGDcrvKhDL4baEA4ke1saWnRn2MPNohEncpmGTh++vSZQEdHhwh/i9lKYcuLcDgU9/1iVl1Pr7m5jp3YYRbeV+4toa2f/JbcJ1smP+Cl3Tbpe5IcbKrOofkcGIwkGfUKjkHpXjAIT6n8ByJEJoEBLIuETfGwfri+9eawLwa2CPjc5uZmsZCKnvEbjKJCHGCr1Mcu63x/f/8EI7qiTEpvb1/w+PETAVbhwmAFsDBuQERAEXZ5A8Lt2ftHdZ+N9/z0f/+jILpu63YmezyU1w7nvSrba+cct9ut6Ln3b7Fi38zvgIOw9vLApCGSwZWKKxAWpK6uzjKb3at1ULdwWbAQ6CMB6bRwrkjEBIXMeB6ZPGnSrwsLCi6ePnt24tlz51YyD2mUIIELDCDKgvb19QW032Bod3E/pCeQ9BOveNWtDvKdeJxoVtudAIewxKz/nrWZFbvcZaMvADkQbGmOixgNu1DwDZTTUdFFNAPuEZY7WusgAaFE4wk28gW4wClsgBDuQ6nJB0Khi5UVFe811tfvCwSiy+TWVFcfg17u6io809o651p39yS2JpX8vtQEJ8tgX93J1qHCcGmWGc2P7yQ4lPwfVnTn/i3rQhBV2QMiQIJVkDHouPpb5GJuMHsgTAogcBkw6TqZjDcwMBRq4xL5Y3kgy0pLN0+sr9/D9x3nFBTk53eyovq4sa+/P63rypVi/j15fD8XC5mxRPi9fVmZmZ05OTmXOaS+8cH27X/BFisl0dLPo+mxcjHyQuu/k+CAYH7Dg6xfZf1T1koNJCnKkqi1TQECqL6uuM3lGEpkPcfSPgROwSHwTrYUexhgnkMI5hn95aWlCG1aE74uPf3Ej3/840nr168X1m60AkO3yig8yqjulndCHolEAPLSX2P9A4otlR2U23OYvt/2fYbN/cfZQPb1vbk5OfvYfeyuKCs7ezsjwQsdHRUHm5u/nZuXl43w3Clx5mXisZdjI/WaRLwCvA3LY/HzuynWxIX7791pcCgBZUYv4ZdYH2BtAD3QQJL4hzB3ZKvQweb+ZFFh4aHK8vKTQ7ESw5WrV6/mnTh16l52QVXXe3qmAyS1tbW3rQ4y4qkOtszoX6FYxxdaA3+hXXjYFWjT5wUOy4UvcyMzWbHedDUPPho+s3jAC9nPZ6UwZ+Dbq2mpqV052dntzBMuMJHtVQTz85IrV6/m79qz58+fffZZ+vrXv35bB/xWQeL0PvC8mpoaPAdfghI6NqR7Sz6NdnNMmG2/E5wjaR1I+nno2/ofhPzC8iVLsIc4VoottGnqbQTs0P4AJnS3Mo92JAd8KO/TfutFGVFiJuPfa6mIIc+/+FyqUu9t3gwaDTWn+9+/cmVA8pdsqfp9aLoET1jehkYQSACzaKOLyO4gtBEgfzMagKEsh/a3DMrUw7B2HxxVlSkJIKVwXWkSKEFNU2yPDXnC7DootV8CQ3QVbN66NcxX4VEOvyeMtp0UZNvCe9JiYxrCn40bcNxBwZoFfy1vR5N0UmxuCiK8/3ink2DjQbCgzY9Yvy6t02gTuJTt/jD64osvvvjiiy+++OKLL7744osvvvjiiy+++OKLL7744osvvvjiiy+++OKLL7744osvvvjiiy+++HL75f8DE0JtE8pag1cAAAAASUVORK5CYII=;" parent="5sxOvh6XKOCeENeX7emo-84" vertex="1">
        <mxGeometry width="60.97" height="70" as="geometry" />
      </mxCell>
    </UserObject>
    <UserObject label="mpd" link="https://www.musicpd.org/" id="5sxOvh6XKOCeENeX7emo-50">
      <mxCell style="text;html=1;resizable=0;autosize=1;align=center;verticalAlign=middle;points=[];fillColor=none;strokeColor=none;rounded=0;fontFamily=sans-serif;" parent="5sxOvh6XKOCeENeX7emo-84" vertex="1">
        <mxGeometry x="10.490000000000009" y="70" width="40" height="20" as="geometry" />
      </mxCell>
    </UserObject>
    <mxCell id="5sxOvh6XKOCeENeX7emo-62" style="edgeStyle=none;rounded=1;comic=0;orthogonalLoop=1;jettySize=auto;html=1;exitX=1;exitY=0.5;exitDx=0;exitDy=0;entryX=0;entryY=0.5;entryDx=0;entryDy=0;fontFamily=sans;strokeWidth=2;startArrow=classic;startFill=1;" parent="5sxOvh6XKOCeENeX7emo-85" source="5sxOvh6XKOCeENeX7emo-52" target="5sxOvh6XKOCeENeX7emo-47" edge="1">
      <mxGeometry relative="1" as="geometry" />
    </mxCell>
    <mxCell id="5sxOvh6XKOCeENeX7emo-86" value="" style="group" parent="1" vertex="1" connectable="0">
      <mxGeometry x="483.23" y="316" width="80" height="82" as="geometry" />
    </mxCell>
    <UserObject label="" link="https://www.chromium.org/" id="5sxOvh6XKOCeENeX7emo-46">
      <mxCell style="dashed=0;outlineConnect=0;html=1;align=center;labelPosition=center;verticalLabelPosition=bottom;verticalAlign=top;shape=mxgraph.weblogos.chrome;fontFamily=sans;" parent="5sxOvh6XKOCeENeX7emo-86" vertex="1">
        <mxGeometry x="12.720000000000027" width="54.56" height="55" as="geometry" />
      </mxCell>
    </UserObject>
    <UserObject label="chromium" link="https://www.chromium.org/" id="5sxOvh6XKOCeENeX7emo-48">
      <mxCell style="text;html=1;resizable=0;autosize=1;align=center;verticalAlign=middle;points=[];fillColor=none;strokeColor=none;rounded=0;fontFamily=sans-serif;" parent="5sxOvh6XKOCeENeX7emo-86" vertex="1">
        <mxGeometry y="62" width="80" height="20" as="geometry" />
      </mxCell>
    </UserObject>
    <mxCell id="5sxOvh6XKOCeENeX7emo-89" value="" style="group" parent="1" vertex="1" connectable="0">
      <mxGeometry x="450" y="400" width="155.97000000000003" height="94" as="geometry" />
    </mxCell>
    <mxCell id="5sxOvh6XKOCeENeX7emo-87" value="" style="group" parent="5sxOvh6XKOCeENeX7emo-89" vertex="1" connectable="0">
      <mxGeometry y="5" width="80" height="86" as="geometry" />
    </mxCell>
    <UserObject label="" link="https://github.com/hoyon/mpv-mpris" id="5sxOvh6XKOCeENeX7emo-58">
      <mxCell style="shape=image;html=1;verticalAlign=top;verticalLabelPosition=bottom;labelBackgroundColor=#ffffff;imageAspect=0;aspect=fixed;image=data:image/png,iVBORw0KGgoAAAANSUhEUgAAAIAAAACACAMAAAD04JH5AAACWFBMVEUAAAAA/wAA/wAAAAAAqgAAvwBAQEAAzAAzMzMA1QArKysgvyAgIEAkJDcOxg4rKysoKDYMxQwjIy4WvBYhLCwVvxUUwhQnJzEiKzMTvxMkJDEjKS4iKC0RwhEhJzIQwxAmJjEQvxAlJTAQwRAkJC8TwBMiJjASvxIkKDEiJi8RwBEQwhAjJy8PwQ8Pwg8TvxMSwBIlKTASwRIkKC8iJjAlKC8RwBEkJzEQwhAQwBASwhIlKDESwhIkJzESwRISwRIjJjERwBERwREQwRAQwRAjKDAQwhAQwBAlJy8kJy8SwhIRwRElKC8RwhEQwBAjKDElJzASwBIRwBElJzAkJy8kJjERwBEQwhAQwBASwRIkKDASwRIjJzERwRERwhERwBERwRERwhEQwhASwRIjJzASwRIjJy8RwRERwREkJzAQwRAkJy8QwRAkJzEkJzAjJjAlJjARwREkKDAkJy8kJzAkJzAkJzARwhEjJjARwBElKC8RwRERwRERwhEkJzAkJzAQwRAkJy8RwREkJzERwBERwRERwRElJzARwREkJzARwREQwRAlJy8kJzARwREjJzERwhElJzARwREQwRAkJzASwRIRwRERwREkJzARwREkJzARwREkJy8RwBEkJzARwRERwhEkJzAkJzARwhEkJzERwREkJzAkJzARwREkJy8kJjARwREkJzAkJzARwREkJzARwRERwREkJzAkJzARwREkJzAkJzARwREkJy8RwREkJzARwREkJzARwREkJzARwREkJzARwREkJzARwREkJzAkJzARwREkJzAjKNqbAAAAxnRSTlMAAQICAwQEBQUGBggIDhISExYWFxcYGRoeKCosLS4uLy8wMDExNTU4OTw9P0FCQ0RFRUZGSkxNTlBRU1NUVFZXWFlbXl9fYGFhYmRnZ2htbW9ydnZ3eHp9foCAg4OEhYaIiY2PkJGRlZebnJydnZ6foKGhoqOkpaamp6eoqaqqq6yssbKztLW1tra5urzAwcLDw8jJyczN0tPW1tfX2Nrb3N3e4OLk5OXn5+jq7O3v7/Dx8fLz9fb39/j4+fn6+vv7/Pz9/f7G6ZcoAAADVElEQVR42u3a91vTQBgH8BdUilYRpW5rEffCjVqoWxy4t1agLhwoosgQEIqDWgfuiQq4B9aJOFBaxeTf8kmTyKOFyl1ectbnvj/0yZP08n6eZt2lB8DDE2qJWbjziNOfo/YoeVX3LSVlwVOwLhqp/LiK70JzrhukdZE3xL/n2VCM8lEnhN8zXlo7UWxLXiAI+lX/UV9IklbbRJ0EvR8KWgCaBZ0uB9QXrNKGRFEfQUpgfcEsbYgVdREYnwTW3y5vymi7II4ekKBW/bJvfpI/VrO6LTbR1mqasAR7lfqvh5G1+4b1G1QpgOWE7bxYR+GjAojRCKAWqKcAabuvAWdibRxjAKWAFtAgIgkwAVQCWsCnFu9ItbGMARQCZAC54JVc30MK+CAiCewywI4GIBWEJec7nfnJYaSA960/G2sH6tGLDgIQb3fQAVAXrH8wkjUgUQfA22AAmw6AW1gAk9sril6XiRSwFgvglpu4SAERpUgApWfjJT8IU3ZkZu7PyjqQnX0oJ+dwbm5eQeEDCoCKRjkxyjiAAziAAziAAziAAziAAziAA0IRQD80QwIog1M3M4A8PHebmAFQwwEc0BLA4ihyak6Rw0wJMKT7BJQ0phqoAGkCWlJpAGYfHqDRTAFwCIhxUACKMQFFFAAnJsDZToDKjQmjp6ff2TTDwwRQn/Lrz5ozLACf46WvdfYjTrEArAeA5Gqh/qAR4CQDwHMjwBz/0gaAYwwAuwCg0r9UFQ4VDABzAXooi5dOs7gMxwAMYXofYA6Y2XwI2AC2AcBNloD7HQFmyYvXll1gcSNaAgDzqoX68niACSwA7wb7b8Xh0udWJg8jj1X5aq/drB7HV1dPGmFdVe5j1h9o18uQeZeMeafUgtgt91lCcWAChjSsoZmdbmgmDU6LtQ9Oi6kHp/z9AAeEAMDkoptHhAZwUc4j+n9eVvP/CzhAnR2Lch2eV3Y2laDNXaXNCoT6fdUp9yQTe7OUNm+Ga67f7aKyr5eRBK2mqSdBQ+YCm5bM3vxI3VUeCbvrUxE9k4l+uKXo9c+SHbmIK8j16wYQnjt9HqPW/0E+q7l/DWL9hkUU10/0cbT6NaPoLuGx55owyt9b2YX6LtJzcUZhmZaU7FkzCHh4/qH8BGUXh1vWfcAIAAAAAElFTkSuQmCC;fontFamily=sans;" parent="5sxOvh6XKOCeENeX7emo-87" vertex="1">
        <mxGeometry x="5" width="60" height="60" as="geometry" />
      </mxCell>
    </UserObject>
    <UserObject label="mpv-mpris" link="https://github.com/hoyon/mpv-mpris" id="5sxOvh6XKOCeENeX7emo-59">
      <mxCell style="text;html=1;resizable=0;autosize=1;align=center;verticalAlign=middle;points=[];fillColor=none;strokeColor=none;rounded=0;fontFamily=sans-serif;" parent="5sxOvh6XKOCeENeX7emo-87" vertex="1">
        <mxGeometry y="66" width="80" height="20" as="geometry" />
      </mxCell>
    </UserObject>
    <mxCell id="5sxOvh6XKOCeENeX7emo-88" value="" style="group" parent="5sxOvh6XKOCeENeX7emo-89" vertex="1" connectable="0">
      <mxGeometry x="100.00000000000003" width="70" height="94" as="geometry" />
    </mxCell>
    <UserObject label="" link="https://github.com/mpv-player/mpv" id="5sxOvh6XKOCeENeX7emo-55">
      <mxCell style="shape=image;imageAspect=0;aspect=fixed;verticalLabelPosition=bottom;verticalAlign=top;fontFamily=sans;image=data:image/png,iVBORw0KGgoAAAANSUhEUgAAAIAAAACACAYAAADDPmHLAAApJElEQVR42u19fYxj13XfsfTiUA3TUC3bsDVTMwgdMy2LEgYDEAEREwjRsCgLT5FpM2gHyBTdIFt0i67dKTxG549JOn8M0kkzMMbt/DEtJtKsTO1yJWrF3WXWE4mOKYmSaYlyaYeuqJo2aIRSuDJlERZlvV31nEs+zn2X932SM7uS9i7eksNHvo97fvec3/m4990P99qHut1/py/gXruz7R4APuTtHgA+5O0eAD7k7R4APuTtgwwARdg8Pp/Ps729HTx79mx4ZWUlglsI38eWl5fDuAWXlpaCmUzGGwgEoFar8cf4wLYPEgAmgj44OAivr6+nV1dXl3A7u7a2dh7/Xj9//vxmLBb7j6FQ6HeDweDv0Ob3+5dQ4P9q/Pe/iUQi/z6VSv1n+g225XPnzmURJEkES3hhYcGDbfjSSy/d6XudW3u/A4AJPJ/PRzc2NlZQaKv4uhWNRj+Pgv0tr9ebRIFFcPu7+D2voigfEQ+gqiqoQxUGgyF7PzmwonwUt7+Jv/1FPM6nUHv8YwJJOp1GTJzLnDlzJoYaw4O/6X3zm9+80/3gur0fAcCEXi6XkyhsEvgOjtrPo4B+A4X1yyg0L//lQX8AzUYTKuUqHBWPoJgvQv6wALn9HBzu5dj7Am7FfAmKh6N92melQgmq5Ro06g1ot9rQ7/cJGAqe62MIijiC7F8QIEhDIBi8+Hn3ueeeU7nTv3enO8uqvV8AwNT73t5eeGdn5zwKfRfV+GdRCL9K8uC/2O32oFwqoxDzcLB7ALmDPFRKVWjVW9Br9WHYU0EZKuAFH/gVP/hwo1f6m9778HC+8T4Pfqr2AXrtHrQbHahXGnBUKEMhV0COUIcengtBpwSCgV9E4f+TRCJxljhFNptVS6VS+8c//vGd7jfLdrcDgI32o6Oj5NbW1nY8ntjx+byfRqH/Df5LNDrzKOjd7T322qw1YdAZgqJ6IKAERgJGwXpQOXjwnzL+x/O70d8qd1oQ9hFoCBL0P2IOgdFutBFsFaY96BoIDMFQ8JPIKRbRRCyRicAftl588cW7VivcrQDQ1HwaWft+OBz+L2TL8bP7tN3DwYB1/PbGDlPXnVYXR7ZnPKoDKGwStWcmEq+OAaEYHMMz+edFwA2YuSAT0+v1AEHwIHKG30gmk2eWlpd8eP2NF154YXinOxbucgCwoUYjngSPav4L2HG/wH+h0+nC/s4+7GzuQgNHOqlzPwqcVLcmcGWOnpuTY9F3CQx9NDVHhSOo1evg83s9COBfQ/OwQhqh0+k0Xn31VdX2QU+43U0AUFDoof39/W0kddso+BC/s9PuMKGT8Ltok9FKM/VOqp0XEZoHKapOD8HK+NXDzEStXIdqpQpev/cBvK9PZzLpReQI/YcPD1twF5iFuwEATN3X642zyKgPkdgl8O+P8Cx+Z4sEfwD9bp/EzsgaqXgngp1lyKkGv1aE48q1BX42AGiUG1BBIATDwQfDkfBnVlbOxFEz1L5y48YA7iAQ7jQAGLM/ODjIoc38PRy8D/A7yR3bWtti9h25+kTw1niaFY8wBZ25mBUUde2oDq12C2Lx6C9FY9Fl1AaDw4cfbnBYOlUQ3CkAsFFfq9WWcNTnUN3/Cgisfv38BlSPqsw9C3iCx6pVmaeFB4lusKcrrAiiGbCG6KGQ9+DxeX4agfCbKysrUeyD6vPPP6+RxNtzvUW4uwCgICHyViqVHSR5G/j3z/A7KUBDtn7YVyc23si2z6NR9G+oDtk2UAcwGNJ7eh2M9oE+QjhP3DWrLWg1URskY7+cSMQX4vF4vVB4ogOnaBJOGwDK5uZmEMlewe/3/zMQbP36uQ2olCuM4BGzdzvCwGTUkmB7gy50e7j1O7h1odfvsa0/6LP97BXdzP6wz96Ptt7klcCiGsQMnLZhbwjVEnKDaPDnorHYYiad7j+SyzXglEBwmgDwHB4eUuatiEQvyu9oNloo/HXodtB/VoLHo34OJyVBkcA7PRQ2biToAQqSCZFGtmpT7at6jUEAoeMMECSkJdw0hTt2/Qhl7lF/Kp6Mpynp9NBDD1VOgxecFgA8xWIxmclkCqjK/w6/o4J2fmt9C6gPSfg8yZtF7feGPSb0TreNQu+j4EjgMKM/AFJcqGg2SHPQNvpEcXXt7TqBtHtfIpX4NUpRo5k8unmzd6IgOA0AUCg3nUwmc9gpD/I7KJK3t73HAjhBJQSzcvnRaO9Bu9tiKn44HBq6cCcVIaBzEpfQeIPTM1DeodVsQyId/wc4YKKNRqP0gx/8QD0pcnjSAGDCR9JHwv9Zfschy8YdjpMygakf0ghyMlZ5wTslbUb+uxbScdOGYzJJABxpA/vH6XcH0Ky3CASfSKVTUeRFxZs/vHkimuAkAeApFIrJVCo5JXyK5hVyxXEmLgBuNL02skm1t7QRrw5t2Fy9uBUbQp8GiGIbHgRG8iycmrQhpbHrTQRB4hOZbCZcyOdLw3femTsITgoAVJUTy2aZzdelaw9w1BdJ+Izp+20dzGg8E4tvdVpstIGFgrcjWHvicacRRhxkaKEN9J8P+kNoozmIp+O/kl3I+h76k4fK8yaGJwEAcvVCKysrAuFTWB6d/Hw28j16tW82nhRJZ9Kop6ybzMYrNlW82XvFxrUcD2jFtsvKtBR+zTqiOWr9Xp9FQhOZeDyTzgxzj+Zq8wTBvAGghMNh3+7eXs7r8fxDvnOoImd3a48VW/jGI99NTI/crmanydwwZyNVPtqtroHtVyTawoY6Nzo2K0PDf7ZB0O0zICAnSCKfahYKhda83Jl5AkAL7277/f7PgJDC3Ti/wVKlAU/A5eGBBWFI5Y9InupK/HYYADhOBSu2AQUCCOzyAvIOPH7PfbF4LIX9W/ra177WH3fCTFpgngDwoN+6hBpgHSaFG6MbXTu7xkK7QS6mb7+pE5Z/LHxwNOLsnFP6HYOf6YVmQ4OY3BoFmxUbmU0CC8UJwvHQA9FYNIEDLf/aa68NZzUF8wKAB+0+lU0fikWZVLFDbJaCPHxnyDpGlSZmlLHwmwA27bhiKACbNM9sVArmQAFrDmPVCNSjJJdi9UUGgkQ2/vNoCjyPPPLIzNHCeQCAqf5cLncoZvUo40U1epTNG1XrmDN72e1T/J1Gvltf3s733XARR1pFsaa3I3NgzQnIpaQ4QTwdi0ej0dr1a9fbs5iCeQCA7P7ZYDD4u2I59sbqJrP7RPymR5c1h6HQKhE+cKH23e2RY4ZPRdtttsilU+0zbr12F/wh/0ci0Ui82WzkOp0fuDYFswLAs76+HkLVf4DvHxBVP5Vxkeo362mjUC2pRRK+qtpJtNhx/Oz53rO0qbM6OLRVWZvYqEw9mY0/GIvHlS8/8mXXpmAWAGjTsLbH9fmTHfVqnfn7FOXTVL9irAeljfx8yrZZKW+Yxf4KHS3rd1daRHIspybHCgSjGU0A0UQk5vP5Ss8++2zPjSmYBQCU3k3G4/FNvNj7+B2ba1us/MknjfRZu1qUo6fUrRXps2/1nfEDp9drBHBHFcVTYLT+bafVgWgyooQj4eDDDz1cABdawC0A6Oq8u7u7e0j8Ps7voOlUNDPHr7hx+YBl0trk7rkIyDo7m8OEkVUpmgK2r2MEFv0PpEbLhhYY9AYQS8V+KRKJ1G7cuNEe35jtrKFbAHgKhUIaWeiqeEFba9vgUWn+jNfRATUu0O62x3l1MEnTOBf/JHkk+Qfcq/2m2P7LKv8wEyHs9iAcD0MoFAz9yUMP5bmbsAUCNwBgo39nZ2dXnLRB+f1quTrO8NkLc4Lg8slVvzmnBxOha//iyRgsnFmAxZUFWD67hNvy+HUJls4sss+zy1kkVkmq0QNfwAvdTtcw0cR5eILBd8oaFFMCYQQCHqoDdAtj6djHoqgFSjdutJxoATcAIOKXjMVinxd3UGUPzcfzgruSLiJ+YkrXjRnRhJ5IJ+Dc+lm2pbNpQFsJ/oAfkLSOVLrQ0YrHA0ioIBgMQCweGwEik2RgaKO9FcEgSxObewXmQNGuR+4RGLvPvW6fuADdm//C4YWCEy3gFADa6N/ETvwkv4OSPeVieRzxsycksaCj1+uadqhVB2uCX8SRvra9BtmFNARQmE49EL4RWNDfhsxSGkLRIEvPiomoqUM7PN1Ixsq0tzAlfJP+HKgEgqDP5y899+wzXbtawCkAPOfPnw9ls9kt8aoo00dTqb1c+t/J6G2z0a+aOnuKxYgnNb99sAnJVBIFN9vEUFkjMKUXUhSEgUa1IU4LAjMjMMXyrQSr2OMCWm6EuEAiE7/P5/cplx69eGTXI3ACAOb3I/M/5/f7f52/KLKVVN5Fs3fcFENSlq/b7zm08JwmwS9t7K0zu04j9qRbKBRiXKHd7rCO14lUsSN8EzaguDN9BASvzwvhaChYr9cPu3/ZHdiJCzgFgHdzc3MHyZ8PhClcrUabzdB1c/ntXpst02IsfMVQ+MFQEHbzOxAJhx112KyNhJpIxYG4Ls1Sll/vbMkn3gTYGVhUQRRLRR8IBkOdq1eLdTtawAkAPPv7+0T+/p24Y3drl83N9yrORx+FejsT5q9KLb2R8COxCFP5RNzuVCNiGQj7oV6uy3mK4pzSHnMWZaIV7AGAvIEo9odXuXDhEY0MqvPQAMp49JP6/xSIq3OgBmDkz8ZFyshffyrka+3Tx5JR2NzdoFU5bN7C/GcNA8cNQtEQVI9qJiPaWfjXTWCIfQf7IxwLB9vt9mH7u9+1NAOOALCxsbEpq+1v69S/s0Z+/9BQ/ctrBoLhIGztb84sfDMIqA6hQe6lL+BDctgEy+CPxM83TCQpdrORo+ulvkQzcD8O1Pa1q1ctzYBdAHhQ+NFUKvU58UJoISaK+3ssIn+y2bREXEbqX8b+FflNosz38ruuyN5UNZH4p+p8jQC+BUMB9r1Wo2U5cu2ElcVBwOZKWMx5IDOA3gAODkX9cu7RImcGXANAGVf8LAcCgU/rOgXRtrezP4r8CYGKaRWmSvP9vX4X7LWRq7d1sEVhT5u/sRau0fi3N11QnfpqKBJiFVCD3lASJQRrYAi+v6IccwK5Bpi+0EA4AP6g35/P5/fffffd4TwA4F1bWzuHo05Htev1BlRKFenMHjv5f7L/sri/UWdTZC67kLH1fb3gLaSpgqnwZaNOrxH0+8PRMFSKFXkPSPGgmGQE9Z95bPAAMo3hWOgBfC298MILWlDoFswCADQBG3hBP8NfMC28SIUJbu0/jX7R/TOs4cO3m3vOSB/JrbBbAK/fBx6v1e8kgrfLGlQ9UOgaWRFns22jFsAhOWRmwBrU5A1ga18tXq2ZhYatAMDU/+rqaiSdTv8HcSdN7xp2h1y9nw29yXUCzeyxM4+POvP85jkWkrXbtE4q7pXQRWuw2vpAyI8s2Z4aVR1qFPE+iA/QApVmXWJYHqelnsVcxTgeYMkDBkNIZhPs7cWLF4kHGJoBOxqAAJAOhUL/VEQjRf8o+SOK1w5hoptgGsBOOQeeYnXzvO0oI99BlUJ1dK5OjwGBWiDoN+UIKsiE7IBEaAdDsLXrbVvT0QyDQcB5AmOLYAUA2h9NRYkIwoULjxzCDABQxvF/WlH7V8WTHIzDv25Cl5T1E8O/8q5RYWV1GaKxqK3jin1DANB5Hc0ONCpNZhL8QRtzE83MgoQr8MIh13DEBbS1RhXz+jMwygYq1lpD0JhERv0Bn7dYLO6/PRwOZgGAFzXAChLAT4CwJm8pXxyvyukiZYsAoByAlT2kmzm3fs7S7TMaFDwAtOMPUUXS9OsWjk7sJFrDzxYKVJNRLx2VymhWFJkfx02sQNIUAOtrFawsZwBNUDASUIaqWqy/+JIhEbQCgGcMgLMogJ/nd5CvS5EvtwRwtBbPwJIKkd1eOrPk4Mj6nqnkqxJBqhOfmbQBW38QtYHHozjSBqIU9G7h2B3GYzYqDWndoGHMg/8aBwRNG9gxsRSUoujkoN+vPF0uN43CwrY0wPr6+iqe/K/xO+q1BkuJuon/w9gEyKt+9V1Krp9d9S8bGZoGmIxQiWmnbCat30ceCY0c24EknVZQpd8jj6BSrNo2kYpiUElsZ+YQB0TKDEYTEapdaFy9dq025gEgegL3W9l/n8/vW109v8qv6EWtXqszFToCgHMTQGapbyMGsHx+Gfx+v41FJFQbJsDEA6RpV60OW9GTRi1pHttN5ca89l4dgZGuu1lrsYINsJ0SEuICyjQYxPkSE902Pj+ZzGiKAaD5xBNPlI2IoKUJWFpaDGUymX8r5rtrlRr6uR3LELARQuUaYLrCZ+Xcsg3f31glmgJAnQ7xUtkXPVuAhEZqFPFvI0ws1xLa+36vx+b422lT3oAiVBEr9hxXSgrF0BPA+2k/dvlyySgkbKkBstlsOJFI/mvxumqVOnSbXddLqKrjpdasGgHACfmz8gKm3htIlubj0wMiuu0u0wbyQJKqOzEPJv5c9KQR0pZmVUBG8wJk8YApkzOeRKsHgELzBwkAnXz+Eh8LcGQCFBz94Xg8/tviCaqoAbqIaruLHICEA/QtAED2OLtkP/SrSnw0BgDVPJmjav+PCdyx8FS2diHxA/Ic6HqMTJEqRAR5c0BAb1aa7gpEOCBohazqWNWb3RMrWMnGaQm7Xu7ixbxbAHgWFxej2P75tAYgAPSmZv06adNuoL6LyJdNZVOujw8TL8AqcseTR65jNeCM+UGtVGMCEYmi7reqHkwwdjtJmyiGtt4aCFoUkDajUnXdQ69IA2TiTAM8+uijBdcAQBMQQQB8RrxoIoGkARTbAJh2mfoWXgABIJlO2Dy+/FwTEyDTAhI37njwq8Lno43cX3oGgA9Ztj6QdCx8dQIcmLi8bCVQsHJ6JaWwGvvXKMAEACqYNfIC4mnGAfqPPnoxB8cAuOXUBERisdhnxAtvoBtIiSA5BxBTwqrhRBCzFggHbQFAZsa1zyr5inyUcMydV6faiNczaz1IqAQtEo+wIJJRjoCPCjINgKCxXJVMXxUqDRMrdkLB+I+IczwTG2sAZgIGrjRAKpUKIQf4LXFns9lilUDGXoCY/p0GCi3GbHYzxMBTmaTt+mCdIQYuFyBBh0aJxfWGVMGl439LRDC7nIHFswvMQzBUw8IJiQRSHkJ8UJXRfSlc0GdCBrlX8/UQ1UkYmvIBw8Ggc/HSpbxbDeBJJpNBBMC/FO0Vzf2nQBB7CpdifVNgQAQNp16Nbzaz6IAESj4r58ucitZHAkX/fSiO/PErCY7KwJdXFyGIZslM8OpkTcDjI1GgqVVtyZPBisnfitwLMO6zY8CSeYokwqR92pfylwpuNYASCoV8aAZ+R7w4qoenp2SRBnA//UKVFIQcH428BJqzZ3oCkzIv6o5yvqpTEKpg22UuHK/2SdWvrC+zqJppNlI7hqrXKvSW6gLIXJpZfN30F92o50PBxzEUy3Q0ms9wLMQCQZcfu1x0zQHwwJ6VlZXfk/V7uVB2HQrWZGUeC1AhvZh2Vfyp6txAYeTzql49niPME0Wq9F0+vwjJhaT1+Tmtr3KC1z5p4OinZd7sRALF+YG8BiBmb6Yx+UYzhoPhAC2mWXvyySePwC0AXn/9dUoHn1H0zim7Jnpen9dlMgi4pJBZx9B0L7JnTho/GjQToCN76jGzB8FwUAh14UwWsrgZ2XnD86mqjvxp5yIiqlU+8QtHgaE54OYF8OFgTv1bEUEqmycz0Ot1K1evXq+4MQEwzgZ6zp07t4ij4OfEurNCvuh6HQCtD6x4ALNlMZuVQJLgSJk6Xxr5my77SC2mYAlHPRVV2jZrXKxAHRfK8tdA90bXYL2kjKRUnHMBtVezvuLvKLmQYKS11WoXnn76z+quI4G4ec6cOZPBkfExEakUDFJ7MHMzKwylkGx6IQ0Wd23YjkgDCIl83t8fTTKJwfLaEgIt7Gxuo8qrfFWnYTS7QPa/VWvbUvu8htCvSKJM3D97i2YBpJdS7LVWqx58vVZruU0GMQAsLy8n/H7/3xcvFtHFKmxmfY6XGarJhUqk4yywAU6DAdjKufIUr+cnmCyvLrHjO+MZghkRikJ5HkCp4EF3YEL+QF4IMrV2gWIjfT66NCpwoRgAtYODg52/pOodcJ4MmgCA8gHoDSTFnaMQZ12IBroBg2pq00j4TgpCQdAAqlCsQcdjdn4lwyJ6DgkGiCkHnk+oHBiof44OywZz/iV1IDqVP10HoLF/1YKLUFl6OB6iv3t/9Ef/fQ9G9n/otiDEE41GffF4fEG8ASJMxVxpJk9AO42ZGSA1mkb77EQ9a4I4yh3pOpiOs3R+wbTwwzLWIAkTy2oCKf7fa3Y5NW5U+KlMhXyBi/2PRv9gyo01soU0+v3oxQz6/ealy3k+CugKAEqn01HRFVzBi9F9n0hGqXgEHnW2OXp04+zJW5Kbo31006zEKRxyfGwNALFUHFbQzodjYcfHAAmJ1DJ+IxOgsX/QzZoq7hVNlb4igIKfJyhqCvsTaAAyy2kGmm63e1QsFsswKwDeeOMNBYlgGu3k3xK/0O10oNvq27NvFiAwu0mabpXKJi2CMTBlp6loZWl1EeKpmMGcAAfCF0LEE+FzVUXaeempp72WHYbMR1iFKWDKyNvSHmJpR/i0Mgp5ANRq9drhs5VnGkYxAHAyN3BhYSEaCASiMltGxaEemO2x7Xye20ilU0dE43brA0ctiv6wJYE07FB+SAsC51X+RPijRk8yOTooS2L/ipTwifF+MQxsh/yNzq+y+6UIILXd3d2t119/vTcXAMTicS9ygYx4GwgKNkPIOi2sWnY0gcgo0aGMuQAt1CQNDFkPEOdtInQ+M3Ac8OEjibwgaDbSqAbQ3PXjzP2Uv6+My7r0GVPVHKTY0sspBnj0nppf+tKXDkBPAB1PDZuYgUajMTyzsrKEF/5T4t52uw2Dtj0bZafS1mypuBoSqym3TaL63TY+Uij9jFP/YqUx/U0TQTqNrsksQMnydLzwhXzA0NT2q7p+JFJOAKCGMildv369DHr772pqGAPAWz/6kbK0vJzAkwTFtBWRQZoHJ1u2zW7TrRtgIURak4dsuiWYVJNrkMTvRWGCgarXaQXup/VqA+rFBoBZV45Ht2zJWAYM5bhP++OZU1b9qF1rDPuENCS1Uqm08/LLL2sBIMMKEicrhNBTv33hcPjXRWSTGaCZwoqqmKo9u814AqQyeaYePV0zlohORpPYSdICUFFbCJ/zUb3JqwrTbp4k8EOVQuXDin4UT0X3eNLn0c8B4AfUWPXbegAm95WFc1ktYdT9whe+sIMf9c3UPzgFAKqVwRI2GLuDihDOHak+9yEhzWpqKtGsA/q90dM1xTStRtSsZvbywpt8LgvtqhJNIGgpqo4qH8jj/VO+/Vj4IIn7869OiB81qlOIj6aEM/V/7dq1I8H+z7REDLu21157DRYXF2l9+o+Lt0o+Oq0XNGtYWN9V0yBQhKdrUrAlEg8fcwIDgelyAbpCEJhE8Ph8vjjqZWCAsQdUy9f0+XyxvEvM9imgY/86AOAI7vftuI/6ZFb2THoyx7GQL2x9+y++3QYL+w9ONQCMCkQgFov9pnhXNK+OHt86aLkjg8ZJEvNHQ1IeoYr8wxf06bwDETjHAgXOd9enh/Vh3em6Af4zOi+x/XatrVf4CkwBQZfT154QJhE+2X16vL1dm69ypXPppaSWO2n+wX/9gz1O/Q/Nlox1vFZwpVLpnzlzJosuys+KO5EfMC0wzyZOh5bZWGrNapPxglAkyNwnfpxMsXVd+JbTFqC37+J3tF+T1iHh06PwZHH+qdpeRZmO7nF1/qDZfSZ8Jy7t6IuZlTT4g75x9q9+8Od//tWaHfUPLlYKVW7fvs3IYCgYjItTmOkm6GkfvaaL6dByXmNKCsXqGXp4AnkjlIShDtF1OB+9051E786ZaQKKRpb2jtij28wCvDrlKHvQhAK6sNlk5NuK9ukzjqT1CAAw0ob99fX1jbfffrvHjX6YqwagrVardZaXlxcUyUMBItEwlApHllzA8SPeDRMp+k6n9zSdq1qsscJV2sXWFlBkKvQ4Q2g0u3c0RazOInuk7rVdimFUT6IN+AIPfpYvvh+5e+aMX6fwVf0QyZ7NoAkY2f5Go5m7cuUJzfc3jP/DrA+MePPNNyGVSvnR/ftHUkFRcKjWcXFoC1poYwVOvpaO5v3TJM9qscpyAiymPhxX7AqAYI9fQc3R63bZLCAq4y4flqF21BjF9FU93KanbsvTujoNwOX66VaIN/Ej367t11oQzZ0W98d9g+3trY2/+iu25r4l+YMZnxii1Or1DnqEpAV+WhQDrZ9bKVdGl2GgxlwnjQwe7SUutsBX1LJEE3oMVJlLXIEmaVRLNQYMKtioobaolepQP6qzBSNIxbNVPQxGu9kDniZLuijCLyfCH+1i5hJlZa4JVcNP6RhUxaQluJrNZu7w8JEjgfzBSQCA3cYPb94E5ALeYDD4KZD4OoROYucn1YxX2DZOuoAOEpodVji/XOFGsyL48dPBHB3wJoSO0xJCQSf7N15CrmfD1VPBmAOkFpNsBRAY2/6NjY111Mw9q9g/zPO5geVyuY1aIINonkq3+dE1oZvs2kqJmhMeozjB1GoaggC4b05FGKYKL/lVOU1Gur5m7zjIo4Fp2u07hp7Hq7AIH8X3naYr+KAPET+y/VpDTrZ/5coVVLnORj/M+Ng4QLYJqAGG0Wj007od40apW5o8wq+OcRKNjWBZpZVuhBotuix5P8Xc9WDTqXohhi+N7jG3VB25eTbJr9m3VjaWJ+sZIaDaq6urm7fUW45HP8zh0bHKU0891aVaAZ/PF5T1KUXpyM46gbzTlboVkMlSPpLF9ft1L4JKP2buwmzdqWzesXFXhKgejMO6k3p+F/fNgyazkqHVvybHyudy6/WXXm5K6v5OBwAwij23MplMdipVDCMXjKJ0owUSTqIZB1fkgSO9RuAXYwaDdC3w35sa/XAMFu24npFG0gTvFNAghcqofD25mOAm6DaL29vbubHqH5gVfsAJPj0cvve976mRSEQNhUIJmXBo2VSaCdxt2iE+Fq6QbXs5WlhZVoUrzcELXEAWaAKJxdB+w1ZKGXNJKuBkdl6dTbvxySsqYl04nwVuWfju+vr62luDt3puRz/MCwDUrl+/3kFTEEFT8Auy/TS7BxE7VSPvSLIuGoFBq6wFEzdSfC/m6scqYPK5MnbltO8Px2sejYpZ+ALR2W+MKnyW15cm58J7UnO5w/Xnqs83Zxn9ME8AUKtWq41sNpserSquCHZXYfP8aH3BYX841S9iiNNJsxNREBMok6gct01n846/R6RLmYBgdBwKLI1GunyeoZNmVM9AkUIS/qSuET+neP/u7m5BInzbIx9OAgA3b94km9dKJBJpZXqCC+s5quShih56wtUda1ysX7rgkqL/sjZ/cbJpU7QEUM1DrYnr/JDwfdxStp1Op/K5//TZbZgWviv0zRUA1F5++eU+uoYD5AQJcXFJbUQRCJoMBAPbeQF1Oi033ybL//O5glOwV6LwV0j43Azl/mDQXsM2eIvZ/b7djB+cJgCooWvYicViCgIhZsTUY+kYq+gZ9GbLHM67qSdFRhycj9Q++fq88Cnat7Ozs/rtb32rDXNQ/XCSAKB25cqTzVQqFfD7A5+Q7WeaAEFA6/Dxiyd8kJtqY/RTlG9lY0k3l0FF6R8cHKzduHGjLhE+uB39MEcASC+gUCjUM5l02Ov1/j0wWciAPOWOZAkVN83NCLb+zUkYARXEWoVwNIQ2f1E3g4mEf5jLrecvX64KwtdIlCPWD6elAajdvn2bQFBLp9NhI/cQxjfuD/vZPHrVkljNu52uyp+29yPhpxaSkDmTFr8zzOfzmxcuXNDi/GKsf+aLPykATC7s3XdVFUFQRRCEUBN8HEyevkkPOqKUbd8lL3A++u8UzFSdvae5i9FkRMdHUfbDw8PD9cMLj5Dwe1yRhyt/H04JAO/J7pLQjkiuUSlZIBD4JJg87kxb2IAWnjhR1m+Sa5+vGdLPMeJfwvEILK8tHpO9yTIzw/7+/v7a5ccerxkIfya7DyesAd6T9SmaA/Xxxx+vU+FoMBiiAvb7wMQk0CKHnWaX1fk5GvGmEjydEW8VBWQLUZ3PQjIb11cmAavqbW9vb6099RR7wlXfQPiuWT+ckgl4z6AHVGSyTRzpnUgkjHcPHzU6AE1zJm1AiSRall5cRua03TU7+LETq6ASrsXz+pVGNT7QaXeq6Oavf+c732nDsc0/MeHDCZNA0RxMeub556udVqtVi8cTUQTDg2DxZG5a9pzcxi66i3bXybNqqs3PnKp7o2PGU3FYWluYVPHoF6oEtVarHX72c5/dGQwmQZ6+ZF7fXIUPJ+0FgNwcsJtpt7/XLxTy5Vgs5vH7/ZHjqKFcDNRxDAhUSNnps+LOeTRb0+/sRCpVCc1TxoJfXYBwIiQkosaFqP1B9+DwYON/fOl/liSj/kSFD6cAADAwBwwIP/nJu+qVK1fQ1qlN5AYR7KC/bjrClBEQkgtxtn4gVRr1HD6SzU2UwGmjmTr05E5S9VQQM7HzwqSTVqtdojr+r7/w9RbcAeHDKQEATMwBe//iiy910VU8ikQiCnoJ2GOjLjMbefT0T3IbKZpIBRiUYdRyC+BamE5JJejcOSrYoEkaNEefFps0MhlI9DqHh7nNP/7j7fxbepUvC/LMhe3DHQaAUW9PtnfeeUe9du1ao9lsVlEbBPiFKc3AQCYhPDYPlF9gD3lSR8/P5YMtMwfrQP5IG3owkyZ0WppFC+GKk1LpT+Qvg0qlcoBEb7vxf75pNurn5udbtdMGwHucOuOlM9m+//3v9/P5fAU7sInaIIAk8W+DCARxdte4Uc6eytFJKKnFBAsz00j0+Y8f+sSWcjWZgCdbTZx+S6yd1t9jx15KMqGTBqK5iPwDpVRhupk6SuQMG41GYWNjY/Pa1avVW+qtvsTFG9qdzDHPdqc0wG3JONMBoV6v07Nuyvi+iSTRh0AI8ERx2uWSzB1EwdATv2hkUqQtgXaZaurIbFBKOpKIMBtNS8Kz7ySibJElEjJpFArP0simFcPpN5HxCtweyaJT+gWjQSsN6+N9FLaw5S9eLP/oR2/2BMEP7sSoh7sAADBG+S2Z8PntpZde6ly6dKnS7XarPp9PQdNAQPiobC6fyv1nFothFT4+DzMXRCYJJLTRe5pUSqOdVLm4rJyYpRCXj9P+7vV6rWq1mkOCt126fr3a/+EPZYIfCPd6YkQP7lIAgAlB1DZtdAxfeeWVXrFYrOFW9Hi8PQQCcj8PLQhw/2Rat27tf3WqYsdo9RApv7BaDZTbTxVCw8Ggh/zl6PDwcPcP/9sfHj7zzDN15DV9wc7fMVsPdzEAQOAGYKIRhm+//fbw2WefaV3KXyojoSrhcO6OCzS9oNXlCmv5iTZ58r86/fnUZ1OrjByvEtrv9drIWo+KhcLBxu///v5XvvKVyquvvtoxGO1DOEX3zm67WwAAFiRxKGgFtr3xxhuDZyqVVuGJJ8q5XK5IZoKekkWEezyD0sP+V0HHGY6XdVUF262tIQDAs3dWFzhUUd7dVrNJ2r1S2NnZ2d3/X/87/2dHR9W/aDbbMBKyE8GfGtGD9xEAgAPCexZmQQeGW7dvD//vK690y1/9avOJQqGSe/TLxUK+UGi1W5VOp1vv93sttM3t/mDQQXLWQ37WozIrdBfZe3zTJf+81+22EEgNClUjgStjKxxg++IXv5h77LHHS0dHN6q12jeab/bflAnbSOjqafn1TtvdCgDgRsptK35gtP3k3Z8Mvvv/vtv7xjdq7aefLjf+9MaNWvHJJ6uFQqH8+GOFo0uX8qXLly/h9ljpscuPHVEw6sni1fL10vXqU08/Vacy9299+1udXu9mz0TYdgR/x0ieVbvbAQASjQBmHMFgG9h4HRj87VTgvNDfu1sFD+8zAIDAEW7bBIJbUIifyTZVIvhb7wehw/sYACBxH98zAARI+IJdcKgOBH7XEDo37f0MADAwE9omjTC63Ki9C8fa530rcPgAAwBsgOI2t90SttuSjdcyH8j2QQfAvQb3AHCvwT0A3GsG7f8DhZAYBJrye64AAAAASUVORK5CYII=;" parent="5sxOvh6XKOCeENeX7emo-88" vertex="1">
        <mxGeometry width="70" height="70" as="geometry" />
      </mxCell>
    </UserObject>
    <UserObject label="mpv" link="https://github.com/mpv-player/mpv" id="5sxOvh6XKOCeENeX7emo-56">
      <mxCell style="text;html=1;resizable=0;autosize=1;align=center;verticalAlign=middle;points=[];fillColor=none;strokeColor=none;rounded=0;fontFamily=sans-serif;" parent="5sxOvh6XKOCeENeX7emo-88" vertex="1">
        <mxGeometry x="15" y="71" width="40" height="20" as="geometry" />
      </mxCell>
    </UserObject>
    <mxCell id="5sxOvh6XKOCeENeX7emo-61" style="rounded=1;comic=0;orthogonalLoop=1;jettySize=auto;html=1;exitX=1;exitY=0.5;exitDx=0;exitDy=0;entryX=0;entryY=0.5;entryDx=0;entryDy=0;fontFamily=sans;startArrow=classic;startFill=1;strokeWidth=2;" parent="5sxOvh6XKOCeENeX7emo-89" source="5sxOvh6XKOCeENeX7emo-58" target="5sxOvh6XKOCeENeX7emo-55" edge="1">
      <mxGeometry relative="1" as="geometry" />
    </mxCell>
  </root>
</mxGraphModel>
